<?xml version="1.0" encoding="UTF-8" standalone="no"?>
<svg
   xmlns:dc="http://purl.org/dc/elements/1.1/"
   xmlns:cc="http://creativecommons.org/ns#"
   xmlns:rdf="http://www.w3.org/1999/02/22-rdf-syntax-ns#"
   xmlns:svg="http://www.w3.org/2000/svg"
   xmlns="http://www.w3.org/2000/svg"
   xmlns:sodipodi="http://sodipodi.sourceforge.net/DTD/sodipodi-0.dtd"
   xmlns:inkscape="http://www.inkscape.org/namespaces/inkscape"
   width="120"
   height="380"
   viewBox="0 0 90 285"
   version="1.1"
   id="svg15565"
   sodipodi:docname="rgb-v5.svg"
   inkscape:version="0.92.2 5c3e80d, 2017-08-06">
  <metadata
     id="metadata15571">
    <rdf:RDF>
      <cc:Work
         rdf:about="">
        <dc:format>image/svg+xml</dc:format>
        <dc:type
           rdf:resource="http://purl.org/dc/dcmitype/StillImage" />
        <dc:title></dc:title>
      </cc:Work>
    </rdf:RDF>
  </metadata>
  <defs
     id="defs15569">
    <clipPath
       clipPathUnits="userSpaceOnUse"
       id="clipPath15575">
      <rect
         style="opacity:0;stroke-width:8.91574097;stroke-miterlimit:10;stroke-dasharray:none"
         id="rect15577"
         width="90"
         height="285"
         x="-2.8421709e-14"
         y="-1.9073486e-06" />
    </clipPath>
  </defs>
  <sodipodi:namedview
     pagecolor="#ffffff"
     bordercolor="#666666"
     borderopacity="1"
     objecttolerance="10"
     gridtolerance="10"
     guidetolerance="10"
     inkscape:pageopacity="0"
     inkscape:pageshadow="2"
     inkscape:window-width="1280"
     inkscape:window-height="678"
     id="namedview15567"
     showgrid="false"
     inkscape:zoom="1.2421053"
     inkscape:cx="25.1804"
     inkscape:cy="141.15628"
     inkscape:window-x="0"
     inkscape:window-y="1"
     inkscape:window-maximized="1"
     inkscape:current-layer="svg15565" />
  <g
     id="surface1"
     clip-path="url(#clipPath15575)"
     transform="translate(0,1.9073486e-6)">
    <rect
       x="0"
       y="0"
       width="90"
       height="285"
       style="fill:#f0f0f0;fill-opacity:1;stroke:none"
       id="rect15230" />
    <path
       style="fill:none;stroke:#9c9c9c;stroke-width:0.63999999;stroke-linecap:butt;stroke-linejoin:miter;stroke-miterlimit:10;stroke-opacity:1"
       d="M 54,150 V 46 h -4"
       id="path15232"
       inkscape:connector-curvature="0" />
    <path
       style="fill:none;stroke:#9c9c9c;stroke-width:0.63999999;stroke-linecap:butt;stroke-linejoin:miter;stroke-miterlimit:10;stroke-opacity:1"
       d="M 258,22 H 18 v 68"
       id="path15234"
       inkscape:connector-curvature="0" />
    <path
       style="fill:none;stroke:#9c9c9c;stroke-width:0.63999999;stroke-linecap:butt;stroke-linejoin:miter;stroke-miterlimit:10;stroke-opacity:1"
       d="M 58,122 V 94 h 184"
       id="path15236"
       inkscape:connector-curvature="0" />
    <path
       style="fill:none;stroke:#9c9c9c;stroke-width:0.63999999;stroke-linecap:butt;stroke-linejoin:miter;stroke-miterlimit:10;stroke-opacity:1"
       d="M 54,262 V 234 H 86"
       id="path15238"
       inkscape:connector-curvature="0" />
    <path
       style="fill:none;stroke:#9c9c9c;stroke-width:0.63999999;stroke-linecap:butt;stroke-linejoin:miter;stroke-miterlimit:10;stroke-opacity:1"
       d="M 46,302 V 178 H 18"
       id="path15240"
       inkscape:connector-curvature="0" />
    <path
       style="fill:none;stroke:#9c9c9c;stroke-width:0.63999999;stroke-linecap:butt;stroke-linejoin:miter;stroke-miterlimit:10;stroke-opacity:1"
       d="M 146,166 V 154 H 50 V 98 h -60"
       id="path15242"
       inkscape:connector-curvature="0" />
    <path
       style="fill:none;stroke:#9c9c9c;stroke-width:0.63999999;stroke-linecap:butt;stroke-linejoin:miter;stroke-miterlimit:10;stroke-opacity:1"
       d="M 106,298 V 158 H 46 V 102 H 10"
       id="path15244"
       inkscape:connector-curvature="0" />
    <path
       style="fill:none;stroke:#9c9c9c;stroke-width:0.63999999;stroke-linecap:butt;stroke-linejoin:miter;stroke-miterlimit:10;stroke-opacity:1"
       d="m 166,290 v -32 h 24 V 150 H 162 V 134 H 82"
       id="path15246"
       inkscape:connector-curvature="0" />
    <path
       style="fill:none;stroke:#9c9c9c;stroke-width:0.63999999;stroke-linecap:butt;stroke-linejoin:miter;stroke-miterlimit:10;stroke-opacity:1"
       d="M 114,78 V 66 H 90 V 58 H 210 V 26 h 52 v -8 h -4 v -32 h 44 v -100 h -40 v -4 h -4 v -80 h -48"
       id="path15248"
       inkscape:connector-curvature="0" />
    <path
       style="fill:none;stroke:#9c9c9c;stroke-width:0.63999999;stroke-linecap:butt;stroke-linejoin:miter;stroke-miterlimit:10;stroke-opacity:1"
       d="M 114,414 V 402 H 90 v -8 h 120 v -32 h 52 v -8 h -4 v -32 h 44 V 222 h -40 v -4 h -4 v -80 h -48"
       id="path15250"
       inkscape:connector-curvature="0" />
    <path
       style="fill:none;stroke:#9c9c9c;stroke-width:0.63999999;stroke-linecap:butt;stroke-linejoin:miter;stroke-miterlimit:10;stroke-opacity:1"
       d="m -10,174 h 112 v 128 h 8 v -72 h 76"
       id="path15252"
       inkscape:connector-curvature="0" />
    <path
       style="fill:none;stroke:#9c9c9c;stroke-width:0.63999999;stroke-linecap:butt;stroke-linejoin:miter;stroke-miterlimit:10;stroke-opacity:1"
       d="m 242,254 h -48 v 8 h -24 v 32 h -8 v -4 h -40 v 8 h -8 v 8 H 42 V 186 H -6"
       id="path15254"
       inkscape:connector-curvature="0" />
    <path
       style="fill:none;stroke:#9c9c9c;stroke-width:0.63999999;stroke-linecap:butt;stroke-linejoin:miter;stroke-miterlimit:10;stroke-opacity:1"
       d="m 6,150 h -20 v 40 h 36 v 8"
       id="path15256"
       inkscape:connector-curvature="0" />
    <path
       style="fill:none;stroke:#9c9c9c;stroke-width:0.63999999;stroke-linecap:butt;stroke-linejoin:miter;stroke-miterlimit:10;stroke-opacity:1"
       d="m 262,-106 v -4 h -4 v -4 h -8 v 40 h -24 v 12 h -52 v 24 h -16 v 12 H 146 V 2 H -42 v 64 h -44 v 36 h -108 v 4"
       id="path15258"
       inkscape:connector-curvature="0" />
    <path
       style="fill:none;stroke:#9c9c9c;stroke-width:0.63999999;stroke-linecap:butt;stroke-linejoin:miter;stroke-miterlimit:10;stroke-opacity:1"
       d="m 262,230 v -4 h -4 v -4 h -8 v 40 h -24 v 12 h -52 v 24 h -16 v 12 h -12 v 28 H -42 v 64 h -44 v 36 h -108 v 4"
       id="path15260"
       inkscape:connector-curvature="0" />
    <path
       style="fill:none;stroke:#9c9c9c;stroke-width:0.63999999;stroke-linecap:butt;stroke-linejoin:miter;stroke-miterlimit:10;stroke-opacity:1"
       d="M 50,254 V 198"
       id="path15262"
       inkscape:connector-curvature="0" />
    <path
       style="fill:none;stroke:#9c9c9c;stroke-width:0.63999999;stroke-linecap:butt;stroke-linejoin:miter;stroke-miterlimit:10;stroke-opacity:1"
       d="m 30,150 h -4 v 8"
       id="path15264"
       inkscape:connector-curvature="0" />
    <path
       style="fill:none;stroke:#9c9c9c;stroke-width:0.63999999;stroke-linecap:butt;stroke-linejoin:miter;stroke-miterlimit:10;stroke-opacity:1"
       d="M -74,94 H 22 V 38 h 164"
       id="path15266"
       inkscape:connector-curvature="0" />
    <path
       style="fill:none;stroke:#9c9c9c;stroke-width:0.63999999;stroke-linecap:butt;stroke-linejoin:miter;stroke-miterlimit:10;stroke-opacity:1"
       d="M 30,226 V 202 H 18 v -8 h -36 v -80 h 40"
       id="path15268"
       inkscape:connector-curvature="0" />
    <path
       style="fill:none;stroke:#9c9c9c;stroke-width:0.63999999;stroke-linecap:butt;stroke-linejoin:miter;stroke-miterlimit:10;stroke-opacity:1"
       d="M 90,162 H 42 V 106 H 6 v -4 h -48"
       id="path15270"
       inkscape:connector-curvature="0" />
    <path
       style="fill:none;stroke:#9c9c9c;stroke-width:0.63999999;stroke-linecap:butt;stroke-linejoin:miter;stroke-miterlimit:10;stroke-opacity:1"
       d="m 78,110 h 48 v 8 h 32"
       id="path15272"
       inkscape:connector-curvature="0" />
    <path
       style="fill:none;stroke:#9c9c9c;stroke-width:0.63999999;stroke-linecap:butt;stroke-linejoin:miter;stroke-miterlimit:10;stroke-opacity:1"
       d="m 178,122 h -36 v 8 H 78 v 8 h 32 v 4 h 32 v 4"
       id="path15274"
       inkscape:connector-curvature="0" />
    <path
       style="fill:none;stroke:#9c9c9c;stroke-width:0.63999999;stroke-linecap:butt;stroke-linejoin:miter;stroke-miterlimit:10;stroke-opacity:1"
       d="m 74,190 v 40 h 16 v 8 H 62 v 8"
       id="path15276"
       inkscape:connector-curvature="0" />
    <path
       style="fill:none;stroke:#9c9c9c;stroke-width:0.63999999;stroke-linecap:butt;stroke-linejoin:miter;stroke-miterlimit:10;stroke-opacity:1"
       d="m 50,294 v -20 h 4"
       id="path15278"
       inkscape:connector-curvature="0" />
    <path
       style="fill:none;stroke:#9c9c9c;stroke-width:0.63999999;stroke-linecap:butt;stroke-linejoin:miter;stroke-miterlimit:10;stroke-opacity:1"
       d="M 78,266 V 242 H 94 V 194 H 86"
       id="path15280"
       inkscape:connector-curvature="0" />
    <path
       style="fill:none;stroke:#9c9c9c;stroke-width:0.63999999;stroke-linecap:butt;stroke-linejoin:miter;stroke-miterlimit:10;stroke-opacity:1"
       d="M 78,186 H 66 v 8"
       id="path15282"
       inkscape:connector-curvature="0" />
    <path
       style="fill:none;stroke:#9c9c9c;stroke-width:0.63999999;stroke-linecap:butt;stroke-linejoin:miter;stroke-miterlimit:10;stroke-opacity:1"
       d="m 86,254 h 4 v 8"
       id="path15284"
       inkscape:connector-curvature="0" />
    <path
       style="fill:none;stroke:#9c9c9c;stroke-width:0.63999999;stroke-linecap:butt;stroke-linejoin:miter;stroke-miterlimit:10;stroke-opacity:1"
       d="M 82,298 V 270 H 74 V 250 H 58 v -8"
       id="path15286"
       inkscape:connector-curvature="0" />
    <path
       style="fill:none;stroke:#9c9c9c;stroke-width:0.63999999;stroke-linecap:butt;stroke-linejoin:miter;stroke-miterlimit:10;stroke-opacity:1"
       d="m 14,70 h -76 v 8"
       id="path15288"
       inkscape:connector-curvature="0" />
    <path
       style="fill:none;stroke:#9c9c9c;stroke-width:0.63999999;stroke-linecap:butt;stroke-linejoin:miter;stroke-miterlimit:10;stroke-opacity:1"
       d="m -78,98 v 8 H 2 v 4 h 24 v 20"
       id="path15290"
       inkscape:connector-curvature="0" />
    <path
       style="fill:none;stroke:#9c9c9c;stroke-width:0.63999999;stroke-linecap:butt;stroke-linejoin:miter;stroke-miterlimit:10;stroke-opacity:1"
       d="M 10,282 V 230 H 34 V 190 H 30"
       id="path15292"
       inkscape:connector-curvature="0" />
    <path
       style="fill:none;stroke:#9c9c9c;stroke-width:0.63999999;stroke-linecap:butt;stroke-linejoin:miter;stroke-miterlimit:10;stroke-opacity:1"
       d="M 34,250 H 14 v 36 h -32 v 8 h -8 v 8"
       id="path15294"
       inkscape:connector-curvature="0" />
    <path
       style="fill:none;stroke:#9c9c9c;stroke-width:0.63999999;stroke-linecap:butt;stroke-linejoin:miter;stroke-miterlimit:10;stroke-opacity:1"
       d="m 230,86 v -4 h -48 v 4 h -8 V 82 H 58 V 42 H 38 v 40"
       id="path15296"
       inkscape:connector-curvature="0" />
    <path
       style="fill:none;stroke:#9c9c9c;stroke-width:0.63999999;stroke-linecap:butt;stroke-linejoin:miter;stroke-miterlimit:10;stroke-opacity:1"
       d="M 146,46 H 62 v 24"
       id="path15298"
       inkscape:connector-curvature="0" />
    <path
       style="fill:none;stroke:#9c9c9c;stroke-width:0.63999999;stroke-linecap:butt;stroke-linejoin:miter;stroke-miterlimit:10;stroke-opacity:1"
       d="m 38,90 h -4 v 4"
       id="path15300"
       inkscape:connector-curvature="0" />
    <path
       style="fill:none;stroke:#9c9c9c;stroke-width:0.63999999;stroke-linecap:butt;stroke-linejoin:miter;stroke-miterlimit:10;stroke-opacity:1"
       d="m 46,34 h 156 v 4"
       id="path15302"
       inkscape:connector-curvature="0" />
    <path
       style="fill:none;stroke:#9c9c9c;stroke-width:0.63999999;stroke-linecap:butt;stroke-linejoin:miter;stroke-miterlimit:10;stroke-opacity:1"
       d="m 66,106 h 8 v 8 h 12"
       id="path15304"
       inkscape:connector-curvature="0" />
    <path
       style="fill:none;stroke:#9c9c9c;stroke-width:0.63999999;stroke-linecap:butt;stroke-linejoin:miter;stroke-miterlimit:10;stroke-opacity:1"
       d="M 122,122 H 82 v 4 h -8 v 16 h 8 v 4"
       id="path15306"
       inkscape:connector-curvature="0" />
    <path
       style="fill:none;stroke:#9c9c9c;stroke-width:0.63999999;stroke-linecap:butt;stroke-linejoin:miter;stroke-miterlimit:10;stroke-opacity:1"
       d="M 62,150 V 130"
       id="path15308"
       inkscape:connector-curvature="0" />
    <path
       style="fill:none;stroke:#9c9c9c;stroke-width:0.63999999;stroke-linecap:butt;stroke-linejoin:miter;stroke-miterlimit:10;stroke-opacity:1"
       d="m 70,134 v -24 h -8 v -8 h 52"
       id="path15310"
       inkscape:connector-curvature="0" />
    <path
       style="fill:none;stroke:#9c9c9c;stroke-width:0.63999999;stroke-linecap:butt;stroke-linejoin:miter;stroke-miterlimit:10;stroke-opacity:1"
       d="m 86,106 h 32 V 98 H 82"
       id="path15312"
       inkscape:connector-curvature="0" />
    <path
       style="fill:none;stroke:#9c9c9c;stroke-width:0.63999999;stroke-linecap:butt;stroke-linejoin:miter;stroke-miterlimit:10;stroke-opacity:1"
       d="m 50,190 h 12 v -8 h 20 v 8 h -4 v 16"
       id="path15314"
       inkscape:connector-curvature="0" />
    <path
       style="fill:none;stroke:#9c9c9c;stroke-width:0.63999999;stroke-linecap:butt;stroke-linejoin:miter;stroke-miterlimit:10;stroke-opacity:1"
       d="m 58,226 v -4 h 12"
       id="path15316"
       inkscape:connector-curvature="0" />
    <path
       style="fill:none;stroke:#9c9c9c;stroke-width:0.63999999;stroke-linecap:butt;stroke-linejoin:miter;stroke-miterlimit:10;stroke-opacity:1"
       d="m 86,214 v -8"
       id="path15318"
       inkscape:connector-curvature="0" />
    <path
       style="fill:none;stroke:#9c9c9c;stroke-width:0.63999999;stroke-linecap:butt;stroke-linejoin:miter;stroke-miterlimit:10;stroke-opacity:1"
       d="m 62,286 h 4 v 12 h 12 v 4 h 8 v -36 h 8 v -4"
       id="path15320"
       inkscape:connector-curvature="0" />
    <path
       style="fill:none;stroke:#9c9c9c;stroke-width:0.63999999;stroke-linecap:butt;stroke-linejoin:miter;stroke-miterlimit:10;stroke-opacity:1"
       d="m 82,266 v -16 h 12 v 8 h 4 v 12 h -8 v 12"
       id="path15322"
       inkscape:connector-curvature="0" />
    <path
       style="fill:none;stroke:#9c9c9c;stroke-width:0.63999999;stroke-linecap:butt;stroke-linejoin:miter;stroke-miterlimit:10;stroke-opacity:1"
       d="m 38,14 h -68 v 4"
       id="path15324"
       inkscape:connector-curvature="0" />
    <path
       style="fill:none;stroke:#9c9c9c;stroke-width:0.63999999;stroke-linecap:butt;stroke-linejoin:miter;stroke-miterlimit:10;stroke-opacity:1"
       d="M 118,6 H 42 v 12 h -68 v 40"
       id="path15326"
       inkscape:connector-curvature="0" />
    <path
       style="fill:none;stroke:#9c9c9c;stroke-width:0.63999999;stroke-linecap:butt;stroke-linejoin:miter;stroke-miterlimit:10;stroke-opacity:1"
       d="m 6,54 h -28 v 8 h -8 v -8"
       id="path15328"
       inkscape:connector-curvature="0" />
    <path
       style="fill:none;stroke:#9c9c9c;stroke-width:0.63999999;stroke-linecap:butt;stroke-linejoin:miter;stroke-miterlimit:10;stroke-opacity:1"
       d="m -34,62 v 4 h 16 V 58 H 10 V 22 H 2"
       id="path15330"
       inkscape:connector-curvature="0" />
    <path
       style="fill:none;stroke:#9c9c9c;stroke-width:0.63999999;stroke-linecap:butt;stroke-linejoin:miter;stroke-miterlimit:10;stroke-opacity:1"
       d="M 78,58 V 54 H 206"
       id="path15332"
       inkscape:connector-curvature="0" />
    <path
       style="fill:none;stroke:#9c9c9c;stroke-width:0.63999999;stroke-linecap:butt;stroke-linejoin:miter;stroke-miterlimit:10;stroke-opacity:1"
       d="M 106,70 H 86 V 58 h -4"
       id="path15334"
       inkscape:connector-curvature="0" />
    <path
       style="fill:none;stroke:#9c9c9c;stroke-width:0.63999999;stroke-linecap:butt;stroke-linejoin:miter;stroke-miterlimit:10;stroke-opacity:1"
       d="m 58,86 h 48"
       id="path15336"
       inkscape:connector-curvature="0" />
    <path
       style="fill:none;stroke:#9c9c9c;stroke-width:0.63999999;stroke-linecap:butt;stroke-linejoin:miter;stroke-miterlimit:10;stroke-opacity:1"
       d="m 114,86 h -4 v 4 H 58"
       id="path15338"
       inkscape:connector-curvature="0" />
    <path
       style="fill:none;stroke:#9c9c9c;stroke-width:0.63999999;stroke-linecap:butt;stroke-linejoin:miter;stroke-miterlimit:10;stroke-opacity:1"
       d="M -14,90 H 2"
       id="path15340"
       inkscape:connector-curvature="0" />
    <path
       style="fill:none;stroke:#9c9c9c;stroke-width:0.63999999;stroke-linecap:butt;stroke-linejoin:miter;stroke-miterlimit:10;stroke-opacity:1"
       d="M -70,90 V 86 H 14"
       id="path15342"
       inkscape:connector-curvature="0" />
    <path
       style="fill:none;stroke:#9c9c9c;stroke-width:0.63999999;stroke-linecap:butt;stroke-linejoin:miter;stroke-miterlimit:10;stroke-opacity:1"
       d="m 10,154 h 12 v 8 h 8 v 8"
       id="path15344"
       inkscape:connector-curvature="0" />
    <path
       style="fill:none;stroke:#9c9c9c;stroke-width:0.63999999;stroke-linecap:butt;stroke-linejoin:miter;stroke-miterlimit:10;stroke-opacity:1"
       d="m 26,138 h 12 v 28 h 44 v 4"
       id="path15346"
       inkscape:connector-curvature="0" />
    <path
       style="fill:none;stroke:#9c9c9c;stroke-width:0.63999999;stroke-linecap:butt;stroke-linejoin:miter;stroke-miterlimit:10;stroke-opacity:1"
       d="m 30,126 v 8 H -2 v 4"
       id="path15348"
       inkscape:connector-curvature="0" />
    <path
       style="fill:none;stroke:#9c9c9c;stroke-width:0.63999999;stroke-linecap:butt;stroke-linejoin:miter;stroke-miterlimit:10;stroke-opacity:1"
       d="m -14,138 v 4 h 44"
       id="path15350"
       inkscape:connector-curvature="0" />
    <path
       style="fill:none;stroke:#9c9c9c;stroke-width:0.63999999;stroke-linecap:butt;stroke-linejoin:miter;stroke-miterlimit:10;stroke-opacity:1"
       d="M 18,130 V 118"
       id="path15352"
       inkscape:connector-curvature="0" />
    <path
       style="fill:none;stroke:#9c9c9c;stroke-width:0.63999999;stroke-linecap:butt;stroke-linejoin:miter;stroke-miterlimit:10;stroke-opacity:1"
       d="m -6,138 v -8 h 20"
       id="path15354"
       inkscape:connector-curvature="0" />
    <path
       style="fill:none;stroke:#9c9c9c;stroke-width:0.63999999;stroke-linecap:butt;stroke-linejoin:miter;stroke-miterlimit:10;stroke-opacity:1"
       d="m 30,270 h -4 v 20 H -6 v 12 h 8 v 4 h 4 v 20 h 8 v -16 h 12"
       id="path15356"
       inkscape:connector-curvature="0" />
    <path
       style="fill:none;stroke:#9c9c9c;stroke-width:0.63999999;stroke-linecap:butt;stroke-linejoin:miter;stroke-miterlimit:10;stroke-opacity:1"
       d="m 38,254 h -8 v 12"
       id="path15358"
       inkscape:connector-curvature="0" />
    <path
       style="fill:none;stroke:#9c9c9c;stroke-width:0.63999999;stroke-linecap:butt;stroke-linejoin:miter;stroke-miterlimit:10;stroke-opacity:1"
       d="M 26,214 H 2"
       id="path15360"
       inkscape:connector-curvature="0" />
    <path
       style="fill:none;stroke:#9c9c9c;stroke-width:0.63999999;stroke-linecap:butt;stroke-linejoin:miter;stroke-miterlimit:10;stroke-opacity:1"
       d="M -2,270 H 2 V 226 H 14"
       id="path15362"
       inkscape:connector-curvature="0" />
    <path
       style="fill:none;stroke:#9c9c9c;stroke-width:0.63999999;stroke-linecap:butt;stroke-linejoin:miter;stroke-miterlimit:10;stroke-opacity:1"
       d="m 2,198 h 12 v 8 h 12 v 4"
       id="path15364"
       inkscape:connector-curvature="0" />
    <path
       style="fill:none;stroke:#9c9c9c;stroke-width:0.63999999;stroke-linecap:butt;stroke-linejoin:miter;stroke-miterlimit:10;stroke-opacity:1"
       d="M -2,274 H 6 V 254"
       id="path15366"
       inkscape:connector-curvature="0" />
    <path
       style="fill:#f0f0f0;fill-opacity:1;fill-rule:nonzero;stroke:#9c9c9c;stroke-width:1.17647099;stroke-linecap:butt;stroke-linejoin:miter;stroke-miterlimit:10;stroke-opacity:1"
       d="m 55.210938,150 c 0,1.61719 -2.421876,1.61719 -2.421876,0 0,-1.61719 2.421876,-1.61719 2.421876,0"
       id="path15368"
       inkscape:connector-curvature="0" />
    <path
       style="fill:#f0f0f0;fill-opacity:1;fill-rule:nonzero;stroke:#9c9c9c;stroke-width:1.17647099;stroke-linecap:butt;stroke-linejoin:miter;stroke-miterlimit:10;stroke-opacity:1"
       d="m 51.210938,46 c 0,1.617188 -2.421876,1.617188 -2.421876,0 0,-1.617188 2.421876,-1.617188 2.421876,0"
       id="path15370"
       inkscape:connector-curvature="0" />
    <path
       style="fill:#f0f0f0;fill-opacity:1;fill-rule:nonzero;stroke:#9c9c9c;stroke-width:1.17647099;stroke-linecap:butt;stroke-linejoin:miter;stroke-miterlimit:10;stroke-opacity:1"
       d="m 19.210938,90 c 0,1.617188 -2.421876,1.617188 -2.421876,0 0,-1.617188 2.421876,-1.617188 2.421876,0"
       id="path15372"
       inkscape:connector-curvature="0" />
    <path
       style="fill:#f0f0f0;fill-opacity:1;fill-rule:nonzero;stroke:#9c9c9c;stroke-width:1.17647099;stroke-linecap:butt;stroke-linejoin:miter;stroke-miterlimit:10;stroke-opacity:1"
       d="m 59.210938,122 c 0,1.61719 -2.421876,1.61719 -2.421876,0 0,-1.61719 2.421876,-1.61719 2.421876,0"
       id="path15374"
       inkscape:connector-curvature="0" />
    <path
       style="fill:#f0f0f0;fill-opacity:1;fill-rule:nonzero;stroke:#9c9c9c;stroke-width:1.17647099;stroke-linecap:butt;stroke-linejoin:miter;stroke-miterlimit:10;stroke-opacity:1"
       d="m 55.210938,262 c 0,1.61719 -2.421876,1.61719 -2.421876,0 0,-1.61719 2.421876,-1.61719 2.421876,0"
       id="path15376"
       inkscape:connector-curvature="0" />
    <path
       style="fill:#f0f0f0;fill-opacity:1;fill-rule:nonzero;stroke:#9c9c9c;stroke-width:1.17647099;stroke-linecap:butt;stroke-linejoin:miter;stroke-miterlimit:10;stroke-opacity:1"
       d="m 87.210938,234 c 0,1.61719 -2.421876,1.61719 -2.421876,0 0,-1.61719 2.421876,-1.61719 2.421876,0"
       id="path15378"
       inkscape:connector-curvature="0" />
    <path
       style="fill:none;stroke:#9c9c9c;stroke-width:1.17647099;stroke-linecap:butt;stroke-linejoin:miter;stroke-miterlimit:10;stroke-opacity:1"
       d="m 47.210938,302 c 0,1.61719 -2.421876,1.61719 -2.421876,0 0,-1.61719 2.421876,-1.61719 2.421876,0"
       id="path15380"
       inkscape:connector-curvature="0" />
    <path
       style="fill:#f0f0f0;fill-opacity:1;fill-rule:nonzero;stroke:#9c9c9c;stroke-width:1.17647099;stroke-linecap:butt;stroke-linejoin:miter;stroke-miterlimit:10;stroke-opacity:1"
       d="m 19.210938,178 c 0,1.61719 -2.421876,1.61719 -2.421876,0 0,-1.61719 2.421876,-1.61719 2.421876,0"
       id="path15382"
       inkscape:connector-curvature="0" />
    <path
       style="fill:none;stroke:#9c9c9c;stroke-width:1.17647099;stroke-linecap:butt;stroke-linejoin:miter;stroke-miterlimit:10;stroke-opacity:1"
       d="m 95.210938,62 c 0,1.617188 -2.421876,1.617188 -2.421876,0 0,-1.617188 2.421876,-1.617188 2.421876,0"
       id="path15384"
       inkscape:connector-curvature="0" />
    <path
       style="fill:none;stroke:#9c9c9c;stroke-width:1.17647099;stroke-linecap:butt;stroke-linejoin:miter;stroke-miterlimit:10;stroke-opacity:1"
       d="m 107.21094,298 c 0,1.61719 -2.42188,1.61719 -2.42188,0 0,-1.61719 2.42188,-1.61719 2.42188,0"
       id="path15386"
       inkscape:connector-curvature="0" />
    <path
       style="fill:#f0f0f0;fill-opacity:1;fill-rule:nonzero;stroke:#9c9c9c;stroke-width:1.17647099;stroke-linecap:butt;stroke-linejoin:miter;stroke-miterlimit:10;stroke-opacity:1"
       d="m 11.210938,102 c 0,1.61719 -2.421876,1.61719 -2.421876,0 0,-1.61719 2.421876,-1.61719 2.421876,0"
       id="path15388"
       inkscape:connector-curvature="0" />
    <path
       style="fill:#f0f0f0;fill-opacity:1;fill-rule:nonzero;stroke:#9c9c9c;stroke-width:1.17647099;stroke-linecap:butt;stroke-linejoin:miter;stroke-miterlimit:10;stroke-opacity:1"
       d="m 83.210938,134 c 0,1.61719 -2.421876,1.61719 -2.421876,0 0,-1.61719 2.421876,-1.61719 2.421876,0"
       id="path15390"
       inkscape:connector-curvature="0" />
    <path
       style="fill:#f0f0f0;fill-opacity:1;fill-rule:nonzero;stroke:#9c9c9c;stroke-width:1.17647099;stroke-linecap:butt;stroke-linejoin:miter;stroke-miterlimit:10;stroke-opacity:1"
       d="m 7.210938,150 c 0,1.61719 -2.421876,1.61719 -2.421876,0 0,-1.61719 2.421876,-1.61719 2.421876,0"
       id="path15392"
       inkscape:connector-curvature="0" />
    <path
       style="fill:#f0f0f0;fill-opacity:1;fill-rule:nonzero;stroke:#9c9c9c;stroke-width:1.17647099;stroke-linecap:butt;stroke-linejoin:miter;stroke-miterlimit:10;stroke-opacity:1"
       d="m 23.210938,198 c 0,1.61719 -2.421876,1.61719 -2.421876,0 0,-1.61719 2.421876,-1.61719 2.421876,0"
       id="path15394"
       inkscape:connector-curvature="0" />
    <path
       style="fill:#f0f0f0;fill-opacity:1;fill-rule:nonzero;stroke:#9c9c9c;stroke-width:1.17647099;stroke-linecap:butt;stroke-linejoin:miter;stroke-miterlimit:10;stroke-opacity:1"
       d="m 51.210938,254 c 0,1.61719 -2.421876,1.61719 -2.421876,0 0,-1.61719 2.421876,-1.61719 2.421876,0"
       id="path15396"
       inkscape:connector-curvature="0" />
    <path
       style="fill:#f0f0f0;fill-opacity:1;fill-rule:nonzero;stroke:#9c9c9c;stroke-width:1.17647099;stroke-linecap:butt;stroke-linejoin:miter;stroke-miterlimit:10;stroke-opacity:1"
       d="m 51.210938,198 c 0,1.61719 -2.421876,1.61719 -2.421876,0 0,-1.61719 2.421876,-1.61719 2.421876,0"
       id="path15398"
       inkscape:connector-curvature="0" />
    <path
       style="fill:#f0f0f0;fill-opacity:1;fill-rule:nonzero;stroke:#9c9c9c;stroke-width:1.17647099;stroke-linecap:butt;stroke-linejoin:miter;stroke-miterlimit:10;stroke-opacity:1"
       d="m 31.210938,150 c 0,1.61719 -2.421876,1.61719 -2.421876,0 0,-1.61719 2.421876,-1.61719 2.421876,0"
       id="path15400"
       inkscape:connector-curvature="0" />
    <path
       style="fill:#f0f0f0;fill-opacity:1;fill-rule:nonzero;stroke:#9c9c9c;stroke-width:1.17647099;stroke-linecap:butt;stroke-linejoin:miter;stroke-miterlimit:10;stroke-opacity:1"
       d="m 27.210938,158 c 0,1.61719 -2.421876,1.61719 -2.421876,0 0,-1.61719 2.421876,-1.61719 2.421876,0"
       id="path15402"
       inkscape:connector-curvature="0" />
    <path
       style="fill:#f0f0f0;fill-opacity:1;fill-rule:nonzero;stroke:#9c9c9c;stroke-width:1.17647099;stroke-linecap:butt;stroke-linejoin:miter;stroke-miterlimit:10;stroke-opacity:1"
       d="m 31.210938,226 c 0,1.61719 -2.421876,1.61719 -2.421876,0 0,-1.61719 2.421876,-1.61719 2.421876,0"
       id="path15404"
       inkscape:connector-curvature="0" />
    <path
       style="fill:#f0f0f0;fill-opacity:1;fill-rule:nonzero;stroke:#9c9c9c;stroke-width:1.17647099;stroke-linecap:butt;stroke-linejoin:miter;stroke-miterlimit:10;stroke-opacity:1"
       d="m 23.210938,114 c 0,1.61719 -2.421876,1.61719 -2.421876,0 0,-1.61719 2.421876,-1.61719 2.421876,0"
       id="path15406"
       inkscape:connector-curvature="0" />
    <path
       style="fill:#f0f0f0;fill-opacity:1;fill-rule:nonzero;stroke:#9c9c9c;stroke-width:1.17647099;stroke-linecap:butt;stroke-linejoin:miter;stroke-miterlimit:10;stroke-opacity:1"
       d="m 91.210938,162 c 0,1.61719 -2.421876,1.61719 -2.421876,0 0,-1.61719 2.421876,-1.61719 2.421876,0"
       id="path15408"
       inkscape:connector-curvature="0" />
    <path
       style="fill:#f0f0f0;fill-opacity:1;fill-rule:nonzero;stroke:#9c9c9c;stroke-width:1.17647099;stroke-linecap:butt;stroke-linejoin:miter;stroke-miterlimit:10;stroke-opacity:1"
       d="m 79.210938,110 c 0,1.61719 -2.421876,1.61719 -2.421876,0 0,-1.61719 2.421876,-1.61719 2.421876,0"
       id="path15410"
       inkscape:connector-curvature="0" />
    <path
       style="fill:#9c9c9c;fill-opacity:1;fill-rule:nonzero;stroke:none"
       d="m 72.601562,188.60156 h 2.800782 v 2.80078 h -2.800782 z m 0,0"
       id="path15412"
       inkscape:connector-curvature="0" />
    <path
       style="fill:#9c9c9c;fill-opacity:1;fill-rule:nonzero;stroke:none"
       d="m 60.601562,244.60156 h 2.800782 v 2.80078 h -2.800782 z m 0,0"
       id="path15414"
       inkscape:connector-curvature="0" />
    <path
       style="fill:#9c9c9c;fill-opacity:1;fill-rule:nonzero;stroke:none"
       d="m 52.601562,272.60156 h 2.800782 v 2.80078 h -2.800782 z m 0,0"
       id="path15416"
       inkscape:connector-curvature="0" />
    <path
       style="fill:#f0f0f0;fill-opacity:1;fill-rule:nonzero;stroke:#9c9c9c;stroke-width:1.17647099;stroke-linecap:butt;stroke-linejoin:miter;stroke-miterlimit:10;stroke-opacity:1"
       d="m 79.210938,266 c 0,1.61719 -2.421876,1.61719 -2.421876,0 0,-1.61719 2.421876,-1.61719 2.421876,0"
       id="path15418"
       inkscape:connector-curvature="0" />
    <path
       style="fill:#f0f0f0;fill-opacity:1;fill-rule:nonzero;stroke:#9c9c9c;stroke-width:1.17647099;stroke-linecap:butt;stroke-linejoin:miter;stroke-miterlimit:10;stroke-opacity:1"
       d="m 87.210938,194 c 0,1.61719 -2.421876,1.61719 -2.421876,0 0,-1.61719 2.421876,-1.61719 2.421876,0"
       id="path15420"
       inkscape:connector-curvature="0" />
    <path
       style="fill:#f0f0f0;fill-opacity:1;fill-rule:nonzero;stroke:#9c9c9c;stroke-width:1.17647099;stroke-linecap:butt;stroke-linejoin:miter;stroke-miterlimit:10;stroke-opacity:1"
       d="m 79.210938,186 c 0,1.61719 -2.421876,1.61719 -2.421876,0 0,-1.61719 2.421876,-1.61719 2.421876,0"
       id="path15422"
       inkscape:connector-curvature="0" />
    <path
       style="fill:#f0f0f0;fill-opacity:1;fill-rule:nonzero;stroke:#9c9c9c;stroke-width:1.17647099;stroke-linecap:butt;stroke-linejoin:miter;stroke-miterlimit:10;stroke-opacity:1"
       d="m 67.210938,194 c 0,1.61719 -2.421876,1.61719 -2.421876,0 0,-1.61719 2.421876,-1.61719 2.421876,0"
       id="path15424"
       inkscape:connector-curvature="0" />
    <path
       style="fill:none;stroke:#9c9c9c;stroke-width:1.17647099;stroke-linecap:butt;stroke-linejoin:miter;stroke-miterlimit:10;stroke-opacity:1"
       d="m 95.210938,178 c 0,1.61719 -2.421876,1.61719 -2.421876,0 0,-1.61719 2.421876,-1.61719 2.421876,0"
       id="path15426"
       inkscape:connector-curvature="0" />
    <path
       style="fill:none;stroke:#9c9c9c;stroke-width:1.17647099;stroke-linecap:butt;stroke-linejoin:miter;stroke-miterlimit:10;stroke-opacity:1"
       d="m 99.210938,226 c 0,1.61719 -2.421876,1.61719 -2.421876,0 0,-1.61719 2.421876,-1.61719 2.421876,0"
       id="path15428"
       inkscape:connector-curvature="0" />
    <path
       style="fill:#f0f0f0;fill-opacity:1;fill-rule:nonzero;stroke:#9c9c9c;stroke-width:1.17647099;stroke-linecap:butt;stroke-linejoin:miter;stroke-miterlimit:10;stroke-opacity:1"
       d="m 87.210938,254 c 0,1.61719 -2.421876,1.61719 -2.421876,0 0,-1.61719 2.421876,-1.61719 2.421876,0"
       id="path15430"
       inkscape:connector-curvature="0" />
    <path
       style="fill:#f0f0f0;fill-opacity:1;fill-rule:nonzero;stroke:#9c9c9c;stroke-width:1.17647099;stroke-linecap:butt;stroke-linejoin:miter;stroke-miterlimit:10;stroke-opacity:1"
       d="m 91.210938,262 c 0,1.61719 -2.421876,1.61719 -2.421876,0 0,-1.61719 2.421876,-1.61719 2.421876,0"
       id="path15432"
       inkscape:connector-curvature="0" />
    <path
       style="fill:none;stroke:#9c9c9c;stroke-width:1.17647099;stroke-linecap:butt;stroke-linejoin:miter;stroke-miterlimit:10;stroke-opacity:1"
       d="m 83.210938,298 c 0,1.61719 -2.421876,1.61719 -2.421876,0 0,-1.61719 2.421876,-1.61719 2.421876,0"
       id="path15434"
       inkscape:connector-curvature="0" />
    <path
       style="fill:#f0f0f0;fill-opacity:1;fill-rule:nonzero;stroke:#9c9c9c;stroke-width:1.17647099;stroke-linecap:butt;stroke-linejoin:miter;stroke-miterlimit:10;stroke-opacity:1"
       d="m 59.210938,242 c 0,1.61719 -2.421876,1.61719 -2.421876,0 0,-1.61719 2.421876,-1.61719 2.421876,0"
       id="path15436"
       inkscape:connector-curvature="0" />
    <path
       style="fill:none;stroke:#9c9c9c;stroke-width:1.17647099;stroke-linecap:butt;stroke-linejoin:miter;stroke-miterlimit:10;stroke-opacity:1"
       d="m 107.21094,18 c 0,1.617188 -2.42188,1.617188 -2.42188,0 0,-1.617188 2.42188,-1.617188 2.42188,0"
       id="path15438"
       inkscape:connector-curvature="0" />
    <path
       style="fill:#f0f0f0;fill-opacity:1;fill-rule:nonzero;stroke:#9c9c9c;stroke-width:1.17647099;stroke-linecap:butt;stroke-linejoin:miter;stroke-miterlimit:10;stroke-opacity:1"
       d="m 15.210938,70 c 0,1.617188 -2.421876,1.617188 -2.421876,0 0,-1.617188 2.421876,-1.617188 2.421876,0"
       id="path15440"
       inkscape:connector-curvature="0" />
    <path
       style="fill:#f0f0f0;fill-opacity:1;fill-rule:nonzero;stroke:#9c9c9c;stroke-width:1.17647099;stroke-linecap:butt;stroke-linejoin:miter;stroke-miterlimit:10;stroke-opacity:1"
       d="m 27.210938,130 c 0,1.61719 -2.421876,1.61719 -2.421876,0 0,-1.61719 2.421876,-1.61719 2.421876,0"
       id="path15442"
       inkscape:connector-curvature="0" />
    <path
       style="fill:none;stroke:#9c9c9c;stroke-width:1.17647099;stroke-linecap:butt;stroke-linejoin:miter;stroke-miterlimit:10;stroke-opacity:1"
       d="m 7.210938,302 c 0,1.61719 -2.421876,1.61719 -2.421876,0 0,-1.61719 2.421876,-1.61719 2.421876,0"
       id="path15444"
       inkscape:connector-curvature="0" />
    <path
       style="fill:#f0f0f0;fill-opacity:1;fill-rule:nonzero;stroke:#9c9c9c;stroke-width:1.17647099;stroke-linecap:butt;stroke-linejoin:miter;stroke-miterlimit:10;stroke-opacity:1"
       d="m 11.210938,282 c 0,1.61719 -2.421876,1.61719 -2.421876,0 0,-1.61719 2.421876,-1.61719 2.421876,0"
       id="path15446"
       inkscape:connector-curvature="0" />
    <path
       style="fill:#f0f0f0;fill-opacity:1;fill-rule:nonzero;stroke:#9c9c9c;stroke-width:1.17647099;stroke-linecap:butt;stroke-linejoin:miter;stroke-miterlimit:10;stroke-opacity:1"
       d="m 31.210938,190 c 0,1.61719 -2.421876,1.61719 -2.421876,0 0,-1.61719 2.421876,-1.61719 2.421876,0"
       id="path15448"
       inkscape:connector-curvature="0" />
    <path
       style="fill:#f0f0f0;fill-opacity:1;fill-rule:nonzero;stroke:#9c9c9c;stroke-width:1.17647099;stroke-linecap:butt;stroke-linejoin:miter;stroke-miterlimit:10;stroke-opacity:1"
       d="m 35.210938,250 c 0,1.61719 -2.421876,1.61719 -2.421876,0 0,-1.61719 2.421876,-1.61719 2.421876,0"
       id="path15450"
       inkscape:connector-curvature="0" />
    <path
       style="fill:#f0f0f0;fill-opacity:1;fill-rule:nonzero;stroke:#9c9c9c;stroke-width:1.17647099;stroke-linecap:butt;stroke-linejoin:miter;stroke-miterlimit:10;stroke-opacity:1"
       d="m 39.210938,82 c 0,1.617188 -2.421876,1.617188 -2.421876,0 0,-1.617188 2.421876,-1.617188 2.421876,0"
       id="path15452"
       inkscape:connector-curvature="0" />
    <path
       style="fill:#f0f0f0;fill-opacity:1;fill-rule:nonzero;stroke:#9c9c9c;stroke-width:1.17647099;stroke-linecap:butt;stroke-linejoin:miter;stroke-miterlimit:10;stroke-opacity:1"
       d="m 63.210938,70 c 0,1.617188 -2.421876,1.617188 -2.421876,0 0,-1.617188 2.421876,-1.617188 2.421876,0"
       id="path15454"
       inkscape:connector-curvature="0" />
    <path
       style="fill:#9c9c9c;fill-opacity:1;fill-rule:nonzero;stroke:none"
       d="m 36.601562,88.601562 h 2.800782 v 2.800782 h -2.800782 z m 0,0"
       id="path15456"
       inkscape:connector-curvature="0" />
    <path
       style="fill:#9c9c9c;fill-opacity:1;fill-rule:nonzero;stroke:none"
       d="m 32.601562,92.601562 h 2.800782 v 2.800782 h -2.800782 z m 0,0"
       id="path15458"
       inkscape:connector-curvature="0" />
    <path
       style="fill:#f0f0f0;fill-opacity:1;fill-rule:nonzero;stroke:#9c9c9c;stroke-width:1.17647099;stroke-linecap:butt;stroke-linejoin:miter;stroke-miterlimit:10;stroke-opacity:1"
       d="m 47.210938,34 c 0,1.617188 -2.421876,1.617188 -2.421876,0 0,-1.617188 2.421876,-1.617188 2.421876,0"
       id="path15460"
       inkscape:connector-curvature="0" />
    <path
       style="fill:#f0f0f0;fill-opacity:1;fill-rule:nonzero;stroke:#9c9c9c;stroke-width:1.17647099;stroke-linecap:butt;stroke-linejoin:miter;stroke-miterlimit:10;stroke-opacity:1"
       d="m 67.210938,106 c 0,1.61719 -2.421876,1.61719 -2.421876,0 0,-1.61719 2.421876,-1.61719 2.421876,0"
       id="path15462"
       inkscape:connector-curvature="0" />
    <path
       style="fill:#f0f0f0;fill-opacity:1;fill-rule:nonzero;stroke:#9c9c9c;stroke-width:1.17647099;stroke-linecap:butt;stroke-linejoin:miter;stroke-miterlimit:10;stroke-opacity:1"
       d="m 87.210938,114 c 0,1.61719 -2.421876,1.61719 -2.421876,0 0,-1.61719 2.421876,-1.61719 2.421876,0"
       id="path15464"
       inkscape:connector-curvature="0" />
    <path
       style="fill:#f0f0f0;fill-opacity:1;fill-rule:nonzero;stroke:#9c9c9c;stroke-width:1.17647099;stroke-linecap:butt;stroke-linejoin:miter;stroke-miterlimit:10;stroke-opacity:1"
       d="m 83.210938,146 c 0,1.61719 -2.421876,1.61719 -2.421876,0 0,-1.61719 2.421876,-1.61719 2.421876,0"
       id="path15466"
       inkscape:connector-curvature="0" />
    <path
       style="fill:#9c9c9c;fill-opacity:1;fill-rule:nonzero;stroke:none"
       d="m 60.601562,148.60156 h 2.800782 v 2.80078 h -2.800782 z m 0,0"
       id="path15468"
       inkscape:connector-curvature="0" />
    <path
       style="fill:#9c9c9c;fill-opacity:1;fill-rule:nonzero;stroke:none"
       d="m 60.601562,128.60156 h 2.800782 v 2.80078 h -2.800782 z m 0,0"
       id="path15470"
       inkscape:connector-curvature="0" />
    <path
       style="fill:#9c9c9c;fill-opacity:1;fill-rule:nonzero;stroke:none"
       d="m 68.601562,132.60156 h 2.800782 v 2.80078 h -2.800782 z m 0,0"
       id="path15472"
       inkscape:connector-curvature="0" />
    <path
       style="fill:#f0f0f0;fill-opacity:1;fill-rule:nonzero;stroke:#9c9c9c;stroke-width:1.17647099;stroke-linecap:butt;stroke-linejoin:miter;stroke-miterlimit:10;stroke-opacity:1"
       d="m 87.210938,106 c 0,1.61719 -2.421876,1.61719 -2.421876,0 0,-1.61719 2.421876,-1.61719 2.421876,0"
       id="path15474"
       inkscape:connector-curvature="0" />
    <path
       style="fill:#f0f0f0;fill-opacity:1;fill-rule:nonzero;stroke:#9c9c9c;stroke-width:1.17647099;stroke-linecap:butt;stroke-linejoin:miter;stroke-miterlimit:10;stroke-opacity:1"
       d="m 83.210938,98 c 0,1.617188 -2.421876,1.617188 -2.421876,0 0,-1.617188 2.421876,-1.617188 2.421876,0"
       id="path15476"
       inkscape:connector-curvature="0" />
    <path
       style="fill:#f0f0f0;fill-opacity:1;fill-rule:nonzero;stroke:#9c9c9c;stroke-width:1.17647099;stroke-linecap:butt;stroke-linejoin:miter;stroke-miterlimit:10;stroke-opacity:1"
       d="m 51.210938,190 c 0,1.61719 -2.421876,1.61719 -2.421876,0 0,-1.61719 2.421876,-1.61719 2.421876,0"
       id="path15478"
       inkscape:connector-curvature="0" />
    <path
       style="fill:#f0f0f0;fill-opacity:1;fill-rule:nonzero;stroke:#9c9c9c;stroke-width:1.17647099;stroke-linecap:butt;stroke-linejoin:miter;stroke-miterlimit:10;stroke-opacity:1"
       d="m 79.210938,206 c 0,1.61719 -2.421876,1.61719 -2.421876,0 0,-1.61719 2.421876,-1.61719 2.421876,0"
       id="path15480"
       inkscape:connector-curvature="0" />
    <path
       style="fill:#f0f0f0;fill-opacity:1;fill-rule:nonzero;stroke:#9c9c9c;stroke-width:1.17647099;stroke-linecap:butt;stroke-linejoin:miter;stroke-miterlimit:10;stroke-opacity:1"
       d="m 59.210938,226 c 0,1.61719 -2.421876,1.61719 -2.421876,0 0,-1.61719 2.421876,-1.61719 2.421876,0"
       id="path15482"
       inkscape:connector-curvature="0" />
    <path
       style="fill:#f0f0f0;fill-opacity:1;fill-rule:nonzero;stroke:#9c9c9c;stroke-width:1.17647099;stroke-linecap:butt;stroke-linejoin:miter;stroke-miterlimit:10;stroke-opacity:1"
       d="m 71.210938,222 c 0,1.61719 -2.421876,1.61719 -2.421876,0 0,-1.61719 2.421876,-1.61719 2.421876,0"
       id="path15484"
       inkscape:connector-curvature="0" />
    <path
       style="fill:#f0f0f0;fill-opacity:1;fill-rule:nonzero;stroke:#9c9c9c;stroke-width:1.17647099;stroke-linecap:butt;stroke-linejoin:miter;stroke-miterlimit:10;stroke-opacity:1"
       d="m 87.210938,214 c 0,1.61719 -2.421876,1.61719 -2.421876,0 0,-1.61719 2.421876,-1.61719 2.421876,0"
       id="path15486"
       inkscape:connector-curvature="0" />
    <path
       style="fill:#f0f0f0;fill-opacity:1;fill-rule:nonzero;stroke:#9c9c9c;stroke-width:1.17647099;stroke-linecap:butt;stroke-linejoin:miter;stroke-miterlimit:10;stroke-opacity:1"
       d="m 87.210938,206 c 0,1.61719 -2.421876,1.61719 -2.421876,0 0,-1.61719 2.421876,-1.61719 2.421876,0"
       id="path15488"
       inkscape:connector-curvature="0" />
    <path
       style="fill:#f0f0f0;fill-opacity:1;fill-rule:nonzero;stroke:#9c9c9c;stroke-width:1.17647099;stroke-linecap:butt;stroke-linejoin:miter;stroke-miterlimit:10;stroke-opacity:1"
       d="m 63.210938,286 c 0,1.61719 -2.421876,1.61719 -2.421876,0 0,-1.61719 2.421876,-1.61719 2.421876,0"
       id="path15490"
       inkscape:connector-curvature="0" />
    <path
       style="fill:none;stroke:#9c9c9c;stroke-width:1.17647099;stroke-linecap:butt;stroke-linejoin:miter;stroke-miterlimit:10;stroke-opacity:1"
       d="m 95.210938,262 c 0,1.61719 -2.421876,1.61719 -2.421876,0 0,-1.61719 2.421876,-1.61719 2.421876,0"
       id="path15492"
       inkscape:connector-curvature="0" />
    <path
       style="fill:#9c9c9c;fill-opacity:1;fill-rule:nonzero;stroke:none"
       d="m 80.601562,264.60156 h 2.800782 v 2.80078 h -2.800782 z m 0,0"
       id="path15494"
       inkscape:connector-curvature="0" />
    <path
       style="fill:#9c9c9c;fill-opacity:1;fill-rule:nonzero;stroke:none"
       d="m 88.601562,280.60156 h 2.800782 v 2.80078 h -2.800782 z m 0,0"
       id="path15496"
       inkscape:connector-curvature="0" />
    <path
       style="fill:#f0f0f0;fill-opacity:1;fill-rule:nonzero;stroke:#9c9c9c;stroke-width:1.17647099;stroke-linecap:butt;stroke-linejoin:miter;stroke-miterlimit:10;stroke-opacity:1"
       d="m 39.210938,14 c 0,1.617188 -2.421876,1.617188 -2.421876,0 0,-1.617188 2.421876,-1.617188 2.421876,0"
       id="path15498"
       inkscape:connector-curvature="0" />
    <path
       style="fill:#f0f0f0;fill-opacity:1;fill-rule:nonzero;stroke:#9c9c9c;stroke-width:1.17647099;stroke-linecap:butt;stroke-linejoin:miter;stroke-miterlimit:10;stroke-opacity:1"
       d="m 7.210938,54 c 0,1.617188 -2.421876,1.617188 -2.421876,0 0,-1.617188 2.421876,-1.617188 2.421876,0"
       id="path15500"
       inkscape:connector-curvature="0" />
    <path
       style="fill:#f0f0f0;fill-opacity:1;fill-rule:nonzero;stroke:#9c9c9c;stroke-width:1.17647099;stroke-linecap:butt;stroke-linejoin:miter;stroke-miterlimit:10;stroke-opacity:1"
       d="m 3.210938,22 c 0,1.617188 -2.421876,1.617188 -2.421876,0 0,-1.617188 2.421876,-1.617188 2.421876,0"
       id="path15502"
       inkscape:connector-curvature="0" />
    <path
       style="fill:#9c9c9c;fill-opacity:1;fill-rule:nonzero;stroke:none"
       d="m 76.601562,56.601562 h 2.800782 v 2.800782 h -2.800782 z m 0,0"
       id="path15504"
       inkscape:connector-curvature="0" />
    <path
       style="fill:none;stroke:#9c9c9c;stroke-width:1.17647099;stroke-linecap:butt;stroke-linejoin:miter;stroke-miterlimit:10;stroke-opacity:1"
       d="m 107.21094,70 c 0,1.617188 -2.42188,1.617188 -2.42188,0 0,-1.617188 2.42188,-1.617188 2.42188,0"
       id="path15506"
       inkscape:connector-curvature="0" />
    <path
       style="fill:#f0f0f0;fill-opacity:1;fill-rule:nonzero;stroke:#9c9c9c;stroke-width:1.17647099;stroke-linecap:butt;stroke-linejoin:miter;stroke-miterlimit:10;stroke-opacity:1"
       d="m 83.210938,58 c 0,1.617188 -2.421876,1.617188 -2.421876,0 0,-1.617188 2.421876,-1.617188 2.421876,0"
       id="path15508"
       inkscape:connector-curvature="0" />
    <path
       style="fill:#f0f0f0;fill-opacity:1;fill-rule:nonzero;stroke:#9c9c9c;stroke-width:1.17647099;stroke-linecap:butt;stroke-linejoin:miter;stroke-miterlimit:10;stroke-opacity:1"
       d="m 59.210938,86 c 0,1.617188 -2.421876,1.617188 -2.421876,0 0,-1.617188 2.421876,-1.617188 2.421876,0"
       id="path15510"
       inkscape:connector-curvature="0" />
    <path
       style="fill:none;stroke:#9c9c9c;stroke-width:1.17647099;stroke-linecap:butt;stroke-linejoin:miter;stroke-miterlimit:10;stroke-opacity:1"
       d="m 107.21094,86 c 0,1.617188 -2.42188,1.617188 -2.42188,0 0,-1.617188 2.42188,-1.617188 2.42188,0"
       id="path15512"
       inkscape:connector-curvature="0" />
    <path
       style="fill:#f0f0f0;fill-opacity:1;fill-rule:nonzero;stroke:#9c9c9c;stroke-width:1.17647099;stroke-linecap:butt;stroke-linejoin:miter;stroke-miterlimit:10;stroke-opacity:1"
       d="m 59.210938,90 c 0,1.617188 -2.421876,1.617188 -2.421876,0 0,-1.617188 2.421876,-1.617188 2.421876,0"
       id="path15514"
       inkscape:connector-curvature="0" />
    <path
       style="fill:#f0f0f0;fill-opacity:1;fill-rule:nonzero;stroke:#9c9c9c;stroke-width:1.17647099;stroke-linecap:butt;stroke-linejoin:miter;stroke-miterlimit:10;stroke-opacity:1"
       d="m 3.210938,90 c 0,1.617188 -2.421876,1.617188 -2.421876,0 0,-1.617188 2.421876,-1.617188 2.421876,0"
       id="path15516"
       inkscape:connector-curvature="0" />
    <path
       style="fill:#f0f0f0;fill-opacity:1;fill-rule:nonzero;stroke:#9c9c9c;stroke-width:1.17647099;stroke-linecap:butt;stroke-linejoin:miter;stroke-miterlimit:10;stroke-opacity:1"
       d="m 15.210938,86 c 0,1.617188 -2.421876,1.617188 -2.421876,0 0,-1.617188 2.421876,-1.617188 2.421876,0"
       id="path15518"
       inkscape:connector-curvature="0" />
    <path
       style="fill:#f0f0f0;fill-opacity:1;fill-rule:nonzero;stroke:#9c9c9c;stroke-width:1.17647099;stroke-linecap:butt;stroke-linejoin:miter;stroke-miterlimit:10;stroke-opacity:1"
       d="m 11.210938,154 c 0,1.61719 -2.421876,1.61719 -2.421876,0 0,-1.61719 2.421876,-1.61719 2.421876,0"
       id="path15520"
       inkscape:connector-curvature="0" />
    <path
       style="fill:#f0f0f0;fill-opacity:1;fill-rule:nonzero;stroke:#9c9c9c;stroke-width:1.17647099;stroke-linecap:butt;stroke-linejoin:miter;stroke-miterlimit:10;stroke-opacity:1"
       d="m 31.210938,170 c 0,1.61719 -2.421876,1.61719 -2.421876,0 0,-1.61719 2.421876,-1.61719 2.421876,0"
       id="path15522"
       inkscape:connector-curvature="0" />
    <path
       style="fill:#f0f0f0;fill-opacity:1;fill-rule:nonzero;stroke:#9c9c9c;stroke-width:1.17647099;stroke-linecap:butt;stroke-linejoin:miter;stroke-miterlimit:10;stroke-opacity:1"
       d="m 27.210938,138 c 0,1.61719 -2.421876,1.61719 -2.421876,0 0,-1.61719 2.421876,-1.61719 2.421876,0"
       id="path15524"
       inkscape:connector-curvature="0" />
    <path
       style="fill:#f0f0f0;fill-opacity:1;fill-rule:nonzero;stroke:#9c9c9c;stroke-width:1.17647099;stroke-linecap:butt;stroke-linejoin:miter;stroke-miterlimit:10;stroke-opacity:1"
       d="m 83.210938,170 c 0,1.61719 -2.421876,1.61719 -2.421876,0 0,-1.61719 2.421876,-1.61719 2.421876,0"
       id="path15526"
       inkscape:connector-curvature="0" />
    <path
       style="fill:#f0f0f0;fill-opacity:1;fill-rule:nonzero;stroke:#9c9c9c;stroke-width:1.17647099;stroke-linecap:butt;stroke-linejoin:miter;stroke-miterlimit:10;stroke-opacity:1"
       d="m 31.210938,126 c 0,1.61719 -2.421876,1.61719 -2.421876,0 0,-1.61719 2.421876,-1.61719 2.421876,0"
       id="path15528"
       inkscape:connector-curvature="0" />
    <path
       style="fill:#f0f0f0;fill-opacity:1;fill-rule:nonzero;stroke:#9c9c9c;stroke-width:1.17647099;stroke-linecap:butt;stroke-linejoin:miter;stroke-miterlimit:10;stroke-opacity:1"
       d="m 31.210938,142 c 0,1.61719 -2.421876,1.61719 -2.421876,0 0,-1.61719 2.421876,-1.61719 2.421876,0"
       id="path15530"
       inkscape:connector-curvature="0" />
    <path
       style="fill:#f0f0f0;fill-opacity:1;fill-rule:nonzero;stroke:#9c9c9c;stroke-width:1.17647099;stroke-linecap:butt;stroke-linejoin:miter;stroke-miterlimit:10;stroke-opacity:1"
       d="m 19.210938,130 c 0,1.61719 -2.421876,1.61719 -2.421876,0 0,-1.61719 2.421876,-1.61719 2.421876,0"
       id="path15532"
       inkscape:connector-curvature="0" />
    <path
       style="fill:#f0f0f0;fill-opacity:1;fill-rule:nonzero;stroke:#9c9c9c;stroke-width:1.17647099;stroke-linecap:butt;stroke-linejoin:miter;stroke-miterlimit:10;stroke-opacity:1"
       d="m 19.210938,118 c 0,1.61719 -2.421876,1.61719 -2.421876,0 0,-1.61719 2.421876,-1.61719 2.421876,0"
       id="path15534"
       inkscape:connector-curvature="0" />
    <path
       style="fill:#f0f0f0;fill-opacity:1;fill-rule:nonzero;stroke:#9c9c9c;stroke-width:1.17647099;stroke-linecap:butt;stroke-linejoin:miter;stroke-miterlimit:10;stroke-opacity:1"
       d="m 15.210938,130 c 0,1.61719 -2.421876,1.61719 -2.421876,0 0,-1.61719 2.421876,-1.61719 2.421876,0"
       id="path15536"
       inkscape:connector-curvature="0" />
    <path
       style="fill:#f0f0f0;fill-opacity:1;fill-rule:nonzero;stroke:#9c9c9c;stroke-width:1.17647099;stroke-linecap:butt;stroke-linejoin:miter;stroke-miterlimit:10;stroke-opacity:1"
       d="m 31.210938,270 c 0,1.61719 -2.421876,1.61719 -2.421876,0 0,-1.61719 2.421876,-1.61719 2.421876,0"
       id="path15538"
       inkscape:connector-curvature="0" />
    <path
       style="fill:#f0f0f0;fill-opacity:1;fill-rule:nonzero;stroke:#9c9c9c;stroke-width:1.17647099;stroke-linecap:butt;stroke-linejoin:miter;stroke-miterlimit:10;stroke-opacity:1"
       d="m 39.210938,254 c 0,1.61719 -2.421876,1.61719 -2.421876,0 0,-1.61719 2.421876,-1.61719 2.421876,0"
       id="path15540"
       inkscape:connector-curvature="0" />
    <path
       style="fill:#f0f0f0;fill-opacity:1;fill-rule:nonzero;stroke:#9c9c9c;stroke-width:1.17647099;stroke-linecap:butt;stroke-linejoin:miter;stroke-miterlimit:10;stroke-opacity:1"
       d="m 31.210938,266 c 0,1.61719 -2.421876,1.61719 -2.421876,0 0,-1.61719 2.421876,-1.61719 2.421876,0"
       id="path15542"
       inkscape:connector-curvature="0" />
    <path
       style="fill:#f0f0f0;fill-opacity:1;fill-rule:nonzero;stroke:#9c9c9c;stroke-width:1.17647099;stroke-linecap:butt;stroke-linejoin:miter;stroke-miterlimit:10;stroke-opacity:1"
       d="m 27.210938,214 c 0,1.61719 -2.421876,1.61719 -2.421876,0 0,-1.61719 2.421876,-1.61719 2.421876,0"
       id="path15544"
       inkscape:connector-curvature="0" />
    <path
       style="fill:#f0f0f0;fill-opacity:1;fill-rule:nonzero;stroke:#9c9c9c;stroke-width:1.17647099;stroke-linecap:butt;stroke-linejoin:miter;stroke-miterlimit:10;stroke-opacity:1"
       d="m 3.210938,214 c 0,1.61719 -2.421876,1.61719 -2.421876,0 0,-1.61719 2.421876,-1.61719 2.421876,0"
       id="path15546"
       inkscape:connector-curvature="0" />
    <path
       style="fill:#f0f0f0;fill-opacity:1;fill-rule:nonzero;stroke:#9c9c9c;stroke-width:1.17647099;stroke-linecap:butt;stroke-linejoin:miter;stroke-miterlimit:10;stroke-opacity:1"
       d="m 15.210938,226 c 0,1.61719 -2.421876,1.61719 -2.421876,0 0,-1.61719 2.421876,-1.61719 2.421876,0"
       id="path15548"
       inkscape:connector-curvature="0" />
    <path
       style="fill:#f0f0f0;fill-opacity:1;fill-rule:nonzero;stroke:#9c9c9c;stroke-width:1.17647099;stroke-linecap:butt;stroke-linejoin:miter;stroke-miterlimit:10;stroke-opacity:1"
       d="m 3.210938,198 c 0,1.61719 -2.421876,1.61719 -2.421876,0 0,-1.61719 2.421876,-1.61719 2.421876,0"
       id="path15550"
       inkscape:connector-curvature="0" />
    <path
       style="fill:#f0f0f0;fill-opacity:1;fill-rule:nonzero;stroke:#9c9c9c;stroke-width:1.17647099;stroke-linecap:butt;stroke-linejoin:miter;stroke-miterlimit:10;stroke-opacity:1"
       d="m 27.210938,210 c 0,1.61719 -2.421876,1.61719 -2.421876,0 0,-1.61719 2.421876,-1.61719 2.421876,0"
       id="path15552"
       inkscape:connector-curvature="0" />
    <path
       style="fill:#f0f0f0;fill-opacity:1;fill-rule:nonzero;stroke:#9c9c9c;stroke-width:1.17647099;stroke-linecap:butt;stroke-linejoin:miter;stroke-miterlimit:10;stroke-opacity:1"
       d="m 7.210938,254 c 0,1.61719 -2.421876,1.61719 -2.421876,0 0,-1.61719 2.421876,-1.61719 2.421876,0"
       id="path15554"
       inkscape:connector-curvature="0" />
    <path
       style="fill:#9c9c9c;fill-opacity:1;fill-rule:nonzero;stroke:none"
       d="m -6.15625,217.55859 v 1.08594 h 0.4375 c 0.246094,0 0.429688,-0.043 0.550781,-0.13672 0.121094,-0.0898 0.183594,-0.22656 0.183594,-0.41015 0,-0.17969 -0.0625,-0.3125 -0.1875,-0.40235 -0.121094,-0.0898 -0.304687,-0.13672 -0.546875,-0.13672 z m 0.488281,2.10938 c 0.078125,0 0.132813,0.0156 0.167969,0.0391 0.035156,0.0273 0.050781,0.0664 0.050781,0.125 0,0.0625 -0.015625,0.10547 -0.050781,0.12891 -0.03125,0.0273 -0.09375,0.039 -0.1875,0.039 h -1.144531 c -0.054688,0 -0.09375,-0.0156 -0.121094,-0.043 -0.027344,-0.0273 -0.042969,-0.0703 -0.042969,-0.125 0,-0.0547 0.011719,-0.0977 0.039063,-0.12109 0.027343,-0.0273 0.070312,-0.043 0.128906,-0.043 h 0.300781 v -2.10938 h -0.164062 c -0.136719,0 -0.222656,-0.0117 -0.253906,-0.0352 -0.035157,-0.0273 -0.050782,-0.0703 -0.050782,-0.13282 0,-0.0547 0.011719,-0.0977 0.042969,-0.125 0.027344,-0.0312 0.066406,-0.0469 0.121094,-0.0469 h 1.085937 c 0.378906,0 0.667969,0.0742 0.863282,0.22266 0.195312,0.14453 0.296874,0.36328 0.296874,0.64843 0,0.28516 -0.097656,0.5 -0.292968,0.64844 -0.195313,0.14453 -0.484375,0.21484 -0.867188,0.21484 H -6.15625 v 0.71485 z m 2.980469,-0.75 v -1.58594 l -0.890625,1.58594 z M -2.941406,220 c -0.074219,0 -0.125,-0.0117 -0.152344,-0.0352 -0.027344,-0.0234 -0.039062,-0.0703 -0.039062,-0.13281 0,-0.0586 0.011718,-0.0977 0.039062,-0.125 0.027344,-0.0234 0.074219,-0.0391 0.132812,-0.0391 H -2.6875 v -0.39063 h -1.09375 c -0.039062,0 -0.070312,-0.0156 -0.09375,-0.0391 -0.019531,-0.0234 -0.03125,-0.0625 -0.03125,-0.10937 v -0.16016 c 0,-0.0625 0.023438,-0.12891 0.066406,-0.19531 0.00781,-0.0117 0.015625,-0.0234 0.019532,-0.0312 l 0.988281,-1.67969 c 0.023437,-0.0391 0.039062,-0.0625 0.054687,-0.0742 0.015625,-0.0117 0.03125,-0.0156 0.054688,-0.0156 0.011718,0 0.027344,0 0.050781,0.004 0.00781,0 0.011719,0.004 0.019531,0.004 l 0.238282,0.0391 c 0.023437,0.004 0.039062,0.0156 0.050781,0.0352 0.015625,0.0195 0.023437,0.0508 0.023437,0.082 v 1.78125 h 0.117188 c 0.035156,0 0.0625,-0.0117 0.082031,-0.0391 0.019531,-0.0273 0.039063,-0.043 0.0625,-0.043 0.03125,0 0.058594,0.0117 0.078125,0.0352 0.023438,0.0234 0.035156,0.0547 0.035156,0.0898 0,0.0117 -0.00391,0.0234 -0.00391,0.0391 0,0.0117 -0.00391,0.0234 -0.00781,0.0352 l -0.019532,0.0937 c -0.011718,0.0586 -0.027344,0.0977 -0.046875,0.11718 -0.023437,0.0195 -0.054687,0.0312 -0.101562,0.0312 h -0.195313 v 0.39063 h 0.082032 c 0.097656,0 0.167968,0.0117 0.203124,0.0391 0.039063,0.0234 0.058594,0.0664 0.058594,0.125 0,0.0547 -0.015625,0.0977 -0.046875,0.125 -0.03125,0.0273 -0.078125,0.043 -0.140625,0.043 z m 2.410156,-1.83203 c 0.105469,-0.0391 0.199219,-0.0664 0.289062,-0.082 0.085938,-0.0195 0.1679692,-0.0273 0.2500005,-0.0273 0.2734375,0 0.4999995,0.0937 0.6835935,0.28516 0.179688,0.1875 0.273438,0.42187 0.273438,0.70312 0,0.30079 -0.101563,0.54688 -0.304688,0.73829 -0.199218,0.19531 -0.457031,0.29296 -0.773437,0.29296 -0.261719,0 -0.480469,-0.0352 -0.660157,-0.10937 -0.175781,-0.0703 -0.265624,-0.15625 -0.265624,-0.25781 0,-0.0391 0.015624,-0.0781 0.050781,-0.10938 0.03125,-0.0312 0.070312,-0.0469 0.113281,-0.0469 0.019531,0 0.109375,0.0312 0.277344,0.0898 0.164062,0.0586 0.320312,0.0898 0.460937,0.0898 0.2109378,0 0.378907,-0.0625 0.511719,-0.1875 0.128906,-0.125 0.195312,-0.28906 0.195312,-0.48828 0,-0.1914 -0.0625,-0.35547 -0.1875,-0.48047 -0.121093,-0.1289 -0.277343,-0.19531 -0.4648432,-0.19531 -0.1406248,0 -0.2773438,0.0352 -0.4140628,0.10547 -0.136718,0.0703 -0.214844,0.10547 -0.246094,0.10547 -0.046874,0 -0.078124,-0.0156 -0.097656,-0.0508 -0.019531,-0.0352 -0.03125,-0.0977 -0.03125,-0.1875 v -1.16797 c 0,-0.0508 0.015625,-0.0898 0.050782,-0.10938 0.03125,-0.0234 0.085937,-0.0352 0.167968,-0.0352 H 0.53125 c 0.074219,0 0.132812,0.0156 0.167969,0.043 0.039062,0.0312 0.058593,0.0781 0.058593,0.14062 0,0.0586 -0.019531,0.10156 -0.058593,0.13281 -0.039063,0.0312 -0.09375,0.0469 -0.167969,0.0469 h -1.0625 z m 3.921875,1.5 c 0.121094,0 0.199219,0.0117 0.234375,0.0352 0.03125,0.0234 0.046875,0.0664 0.046875,0.12891 0,0.0625 -0.015625,0.10938 -0.046875,0.13281 C 3.589844,219.98828 3.523438,220 3.421875,220 H 2.308594 c -0.101563,0 -0.171875,-0.0117 -0.203125,-0.0352 -0.03125,-0.0234 -0.050781,-0.0703 -0.050781,-0.13281 0,-0.0625 0.019531,-0.10547 0.054687,-0.12891 0.039063,-0.0234 0.113281,-0.0352 0.230469,-0.0352 h 0.339844 v -0.77735 L 1.898438,217.5585 H 1.859375 c -0.09375,0 -0.15625,-0.0117 -0.191406,-0.0391 -0.035157,-0.0234 -0.050781,-0.0664 -0.050781,-0.12891 0,-0.0586 0.011718,-0.10156 0.042968,-0.1289 0.027344,-0.0273 0.074219,-0.043 0.132813,-0.043 H 2.4375 c 0.089844,0 0.152344,0.0156 0.183594,0.0391 0.03125,0.0234 0.050781,0.0703 0.050781,0.13281 0,0.0625 -0.019531,0.10547 -0.058594,0.12891 -0.039062,0.0273 -0.109375,0.0391 -0.210937,0.0391 H 2.324219 l 0.570312,1.01563 0.585938,-1.01563 h -0.09375 c -0.085938,0 -0.144531,-0.0117 -0.175781,-0.0391 -0.035157,-0.0234 -0.050782,-0.0664 -0.050782,-0.12891 0,-0.0664 0.015625,-0.11328 0.042969,-0.13671 0.027344,-0.0234 0.097656,-0.0352 0.210937,-0.0352 h 0.433594 c 0.117188,0 0.195313,0.0156 0.226563,0.0391 0.035156,0.0234 0.050781,0.0664 0.050781,0.13281 0,0.0625 -0.015625,0.10547 -0.050781,0.12891 -0.03125,0.0273 -0.097657,0.0391 -0.191407,0.0391 H 3.847656 l -0.796875,1.36719 v 0.74219 z m 1.863281,-0.57813 c 0,0.19141 0.050782,0.34766 0.152344,0.46875 0.101562,0.1211 0.234375,0.17969 0.394531,0.17969 0.148438,0 0.269531,-0.0547 0.367188,-0.16797 0.097656,-0.11328 0.144531,-0.26562 0.144531,-0.44922 0,-0.1914 -0.050781,-0.34375 -0.148438,-0.46484 -0.097656,-0.11719 -0.226562,-0.17578 -0.382812,-0.17578 -0.152344,0 -0.277344,0.0547 -0.375,0.16797 -0.101562,0.11328 -0.152344,0.26172 -0.152344,0.4414 z m -0.050781,-0.625 c 0.085937,-0.10937 0.179687,-0.1914 0.28125,-0.24609 0.105469,-0.0547 0.214844,-0.082 0.339844,-0.082 0.246093,0 0.457031,0.0937 0.628906,0.27734 0.171875,0.1875 0.257813,0.41797 0.257813,0.6875 0,0.28516 -0.082032,0.51953 -0.25,0.70313 -0.167969,0.18359 -0.382813,0.27343 -0.644532,0.27343 -0.308594,0 -0.550781,-0.12109 -0.738281,-0.36718 -0.183594,-0.2461 -0.277344,-0.57032 -0.277344,-0.98047 0,-0.53125 0.136719,-0.95703 0.410157,-1.27735 0.273437,-0.32421 0.632812,-0.48437 1.082031,-0.48437 0.152343,0 0.253906,0.008 0.300781,0.0312 0.046875,0.0234 0.074219,0.0625 0.074219,0.125 0,0.0977 -0.09375,0.15234 -0.277344,0.15234 -0.121094,0.004 -0.21875,0.0117 -0.292969,0.0234 -0.246094,0.0469 -0.449218,0.17188 -0.601562,0.37109 -0.152344,0.20313 -0.25,0.46485 -0.292969,0.79297 z M 7.199219,220"
       id="path15556"
       inkscape:connector-curvature="0" />
    <path
       style="fill:#9c9c9c;fill-opacity:1;fill-rule:nonzero;stroke:none"
       d="m 62.75,271.99609 c -0.269531,-0.0781 -0.488281,-0.24609 -0.652344,-0.5 -0.164062,-0.2539 -0.246094,-0.55078 -0.246094,-0.89453 0,-0.41015 0.125,-0.75781 0.367188,-1.03906 0.242188,-0.28125 0.542969,-0.41797 0.898438,-0.41797 0.359374,0 0.664062,0.14063 0.90625,0.42188 0.242187,0.28125 0.363281,0.6289 0.363281,1.04296 0,0.42969 -0.117188,0.77735 -0.355469,1.04297 -0.234375,0.26172 -0.542969,0.39453 -0.925781,0.39453 -0.03906,0 -0.07031,0 -0.08984,0 -0.02344,0 -0.04297,0 -0.0625,-0.004 l -0.25,0.24609 c 0.09375,-0.0391 0.1875,-0.0664 0.28125,-0.0859 0.09766,-0.0156 0.195313,-0.0234 0.296875,-0.0234 0.07031,0 0.164062,0.0156 0.285156,0.0547 0.121094,0.0352 0.210938,0.0547 0.269532,0.0547 0.04687,0 0.105468,-0.0156 0.175781,-0.043 0.06641,-0.0312 0.113281,-0.043 0.136719,-0.043 0.03906,0 0.07031,0.0156 0.101562,0.0469 0.02734,0.0352 0.03906,0.0742 0.03906,0.12109 0,0.0469 -0.04687,0.0977 -0.140624,0.15235 -0.09766,0.0508 -0.195313,0.0781 -0.296876,0.0781 -0.08984,0 -0.214843,-0.0273 -0.378906,-0.0781 -0.164062,-0.0508 -0.285156,-0.0781 -0.367187,-0.0781 -0.117188,0 -0.242188,0.0274 -0.375,0.0859 -0.132813,0.0547 -0.207031,0.082 -0.222657,0.082 -0.03516,0 -0.06641,-0.0195 -0.101562,-0.0547 -0.03516,-0.0391 -0.05469,-0.0781 -0.05469,-0.11718 0,-0.043 0.07422,-0.13672 0.226563,-0.27735 0.07031,-0.0703 0.128906,-0.125 0.171875,-0.16797 z m 0.367188,-0.26172 c 0.257812,0 0.460937,-0.10156 0.617187,-0.30468 0.152344,-0.19922 0.230469,-0.47657 0.230469,-0.82032 0,-0.34765 -0.07813,-0.625 -0.230469,-0.82812 -0.152344,-0.20313 -0.359375,-0.30469 -0.617187,-0.30469 -0.253907,0 -0.460938,0.10156 -0.613282,0.30469 -0.152344,0.20312 -0.230468,0.47656 -0.230468,0.82812 0,0.34766 0.07812,0.6211 0.230468,0.82422 0.152344,0.19922 0.359375,0.30078 0.613282,0.30078 z m 3.765624,-0.67968 c 0,-0.11719 0.01172,-0.19141 0.03516,-0.22657 0.02344,-0.0351 0.06641,-0.0508 0.132812,-0.0508 0.05469,0 0.09766,0.0117 0.125,0.043 0.02734,0.0274 0.04297,0.0742 0.04297,0.13281 v 0.875 c 0,0.0547 -0.01563,0.0937 -0.04297,0.125 -0.03125,0.0312 -0.07422,0.0469 -0.125,0.0469 h -2.191406 c -0.05469,0 -0.09766,-0.0156 -0.125,-0.043 -0.02734,-0.0273 -0.04297,-0.0703 -0.04297,-0.125 0,-0.0625 0.01563,-0.10547 0.05078,-0.12891 0.03516,-0.0234 0.109374,-0.0351 0.230468,-0.0351 h 0.292969 v -2.10938 h -0.292969 c -0.117187,0 -0.191406,-0.0117 -0.226562,-0.0351 -0.03516,-0.0274 -0.05469,-0.0703 -0.05469,-0.13282 0,-0.0586 0.01563,-0.10156 0.04297,-0.1289 0.03125,-0.0274 0.07422,-0.043 0.136719,-0.043 h 1.265625 c 0.05859,0 0.101562,0.0156 0.128906,0.043 0.03125,0.0273 0.04687,0.0703 0.04687,0.1289 0,0.0625 -0.01953,0.10547 -0.05469,0.13282 -0.03516,0.0234 -0.109374,0.0351 -0.230468,0.0351 h -0.394532 v 2.10938 h 1.25 z m 1.359376,0.61328 h 0.292968 c 0.08594,0 0.144532,0.0156 0.179688,0.0391 0.03516,0.0234 0.05469,0.0664 0.05469,0.125 0,0.0625 -0.01563,0.10938 -0.05078,0.13281 C 68.6875,271.98828 68.613281,272 68.5,272 h -0.699219 c -0.05469,0 -0.09766,-0.0156 -0.125,-0.043 -0.02734,-0.0273 -0.04297,-0.0703 -0.04297,-0.125 0,-0.0625 0.01563,-0.10547 0.05078,-0.12891 0.03125,-0.0234 0.09375,-0.0351 0.183594,-0.0351 h 0.04687 v -2.10938 h -0.05859 c -0.132813,0 -0.222657,-0.0117 -0.265625,-0.0391 -0.04687,-0.0234 -0.07031,-0.0664 -0.07031,-0.12891 0,-0.0586 0.01953,-0.10156 0.05859,-0.125 0.03906,-0.0273 0.105469,-0.0391 0.195313,-0.0391 0,0 0.01562,-0.004 0.04687,-0.004 0.03125,0 0.0625,-0.004 0.09375,-0.004 h 0.21875 c 0.07031,0 0.121094,0.008 0.152344,0.0273 0.02734,0.0156 0.0625,0.0586 0.101563,0.125 l 1.179687,2.03907 v -1.85157 h -0.257812 c -0.08203,0 -0.144532,-0.0156 -0.183594,-0.043 -0.03906,-0.0273 -0.05859,-0.0703 -0.05859,-0.125 0,-0.0664 0.01953,-0.10937 0.05078,-0.13281 0.03125,-0.0234 0.101562,-0.0391 0.207031,-0.0391 h 0.671875 c 0.05469,0 0.09766,0.0156 0.125,0.043 0.02734,0.0273 0.04297,0.0703 0.04297,0.1289 0,0.0625 -0.01953,0.10547 -0.05078,0.12891 -0.03516,0.0273 -0.09766,0.0391 -0.183593,0.0391 h -0.03125 v 2.35938 c 0,0.0469 -0.0078,0.0781 -0.03125,0.0937 -0.01953,0.0156 -0.07031,0.0273 -0.144532,0.0273 -0.07813,0 -0.125,-0.008 -0.140625,-0.0156 -0.01953,-0.008 -0.05078,-0.0469 -0.09375,-0.1211 l -1.246093,-2.14843 z M 70.320312,272"
       id="path15558"
       inkscape:connector-curvature="0" />
    <path
       style="fill:#9c9c9c;fill-opacity:1;fill-rule:nonzero;stroke:none"
       d="m 83.632812,119.66797 c 0.121094,0 0.199219,0.0117 0.234376,0.0352 0.03125,0.0234 0.04687,0.0664 0.04687,0.1289 0,0.0625 -0.01562,0.10938 -0.04687,0.13281 -0.03516,0.0234 -0.101563,0.0352 -0.203126,0.0352 h -1.113281 c -0.101562,0 -0.171875,-0.0117 -0.203125,-0.0352 -0.03125,-0.0234 -0.05078,-0.0703 -0.05078,-0.13281 0,-0.0625 0.01953,-0.10547 0.05469,-0.1289 0.03906,-0.0234 0.113282,-0.0352 0.230469,-0.0352 h 0.339844 v -0.77734 l -0.78125,-1.33204 h -0.03906 c -0.09375,0 -0.15625,-0.0117 -0.191406,-0.0391 -0.03516,-0.0234 -0.05078,-0.0664 -0.05078,-0.1289 0,-0.0586 0.01172,-0.10157 0.04297,-0.12891 0.02734,-0.0273 0.07422,-0.043 0.132812,-0.043 h 0.644532 c 0.08984,0 0.152343,0.0156 0.183593,0.0391 0.03125,0.0234 0.05078,0.0703 0.05078,0.13282 0,0.0625 -0.01953,0.10546 -0.05859,0.1289 -0.03906,0.0273 -0.109375,0.0391 -0.210938,0.0391 h -0.07813 l 0.570313,1.01563 0.585937,-1.01563 h -0.09375 c -0.08594,0 -0.144531,-0.0117 -0.175781,-0.0391 -0.03516,-0.0234 -0.05078,-0.0664 -0.05078,-0.1289 0,-0.0664 0.01563,-0.11329 0.04297,-0.13672 0.02734,-0.0234 0.09766,-0.0352 0.210938,-0.0352 h 0.433594 c 0.117187,0 0.195312,0.0156 0.226562,0.0391 0.03516,0.0234 0.05078,0.0664 0.05078,0.13282 0,0.0625 -0.01563,0.10546 -0.05078,0.1289 -0.03125,0.0273 -0.09766,0.0391 -0.191406,0.0391 h -0.03516 l -0.796875,1.36719 v 0.74219 z M 85.394531,119.39844 85.796875,118 c 0.01172,-0.0508 0.02734,-0.082 0.04687,-0.0977 0.01953,-0.0117 0.05078,-0.0195 0.09766,-0.0195 h 0.105469 c 0.04687,0 0.07813,0.008 0.09766,0.0234 0.01953,0.0117 0.03516,0.0391 0.05078,0.082 l 0.457032,1.41016 0.230468,-1.86328 h -0.371093 c -0.07031,0 -0.125,-0.0117 -0.15625,-0.0352 -0.03516,-0.0273 -0.05078,-0.0664 -0.05078,-0.12109 0,-0.0586 0.01562,-0.10157 0.04687,-0.125 0.03125,-0.0234 0.09375,-0.0352 0.179688,-0.0352 h 0.757812 c 0.03516,0 0.06641,0.0156 0.08984,0.0469 0.02734,0.0312 0.04297,0.0703 0.04297,0.11328 0,0.0547 -0.01563,0.0937 -0.04687,0.12109 -0.02734,0.0234 -0.07422,0.0352 -0.132812,0.0352 h -0.02734 l -0.332032,2.34375 c -0.0039,0.0508 -0.01562,0.082 -0.02734,0.0977 -0.01563,0.0156 -0.03516,0.0234 -0.06641,0.0234 H 86.625 c -0.03516,0 -0.06641,-0.008 -0.08203,-0.0195 -0.01953,-0.0156 -0.03516,-0.043 -0.05078,-0.082 l -0.507813,-1.61328 -0.449219,1.61718 c -0.01172,0.0391 -0.02734,0.0664 -0.04297,0.0781 -0.01953,0.0117 -0.04688,0.0195 -0.08594,0.0195 h -0.175781 c -0.03125,0 -0.05469,-0.008 -0.07031,-0.0234 -0.01172,-0.0156 -0.02344,-0.0469 -0.03125,-0.10156 l -0.355468,-2.33984 h -0.02734 c -0.0625,0 -0.105469,-0.0117 -0.136719,-0.0391 -0.03125,-0.0273 -0.04687,-0.0664 -0.04687,-0.11718 0,-0.0469 0.01172,-0.0859 0.03906,-0.11328 0.02344,-0.0312 0.05469,-0.0469 0.08984,-0.0469 h 0.761719 c 0.08594,0 0.144531,0.0117 0.175781,0.0352 0.03125,0.0234 0.04687,0.0664 0.04687,0.125 0,0.0547 -0.01563,0.0937 -0.05078,0.12109 -0.03125,0.0234 -0.08594,0.0352 -0.15625,0.0352 h -0.328125 z m 3.492188,-0.55078 0.503906,-1.46875 c 0.01953,-0.0547 0.05078,-0.0977 0.08984,-0.1211 0.03906,-0.0234 0.09375,-0.0391 0.164062,-0.0391 h 0.382813 c 0.05078,0 0.08984,0.0156 0.117187,0.043 0.02344,0.0273 0.03516,0.0664 0.03516,0.11719 0,0.0586 -0.01563,0.10156 -0.04688,0.125 -0.03125,0.0234 -0.08984,0.0312 -0.175781,0.0312 h -0.03906 l 0.06641,2.13281 h 0.05469 c 0.101563,0 0.167969,0.0117 0.203126,0.0352 0.03516,0.0234 0.05078,0.0664 0.05078,0.1289 0,0.0547 -0.01172,0.0977 -0.04297,0.125 -0.02734,0.0273 -0.06641,0.043 -0.121094,0.043 h -0.65625 c -0.08984,0 -0.152344,-0.0117 -0.1875,-0.0391 -0.03125,-0.0234 -0.04687,-0.0664 -0.04687,-0.12891 0,-0.0625 0.01953,-0.10547 0.05859,-0.1289 0.03906,-0.0234 0.113281,-0.0352 0.222656,-0.0352 h 0.101563 L 89.570312,117.65234 89.109375,119 c -0.02344,0.0664 -0.05469,0.11328 -0.08984,0.13672 -0.03516,0.0273 -0.08594,0.0391 -0.152343,0.0391 -0.06641,0 -0.117188,-0.0117 -0.152344,-0.0391 -0.03516,-0.0273 -0.0625,-0.0703 -0.08203,-0.13672 l -0.472656,-1.34766 -0.04297,2.01563 h 0.160156 c 0.08984,0 0.15625,0.0156 0.191406,0.0391 0.03906,0.0234 0.05859,0.0664 0.05859,0.125 0,0.0625 -0.01563,0.10547 -0.05078,0.12891 -0.03125,0.0273 -0.09375,0.0391 -0.1875,0.0391 h -0.65625 c -0.05469,0 -0.09375,-0.0156 -0.121093,-0.043 -0.02734,-0.0273 -0.04297,-0.0703 -0.04297,-0.125 0,-0.0625 0.01953,-0.10547 0.05078,-0.1289 0.03516,-0.0234 0.105469,-0.0352 0.207031,-0.0352 h 0.05078 l 0.06641,-2.13281 h -0.03516 c -0.08594,0 -0.148438,-0.0117 -0.179688,-0.0312 -0.03125,-0.0234 -0.05078,-0.0664 -0.05078,-0.125 0,-0.0508 0.01563,-0.0898 0.04297,-0.11719 0.02734,-0.0273 0.0625,-0.043 0.113281,-0.043 h 0.382813 c 0.07422,0 0.128906,0.0156 0.167968,0.0391 0.03906,0.0234 0.06641,0.0664 0.08594,0.1211 z M 90.320312,120"
       id="path15560"
       inkscape:connector-curvature="0" />
    <path
       style="fill:#9c9c9c;fill-opacity:1;fill-rule:nonzero;stroke:none"
       d="m 70.574219,273.55859 -0.02344,0.48828 c -0.0039,0.0195 -0.0039,0.0391 -0.0039,0.0547 0,0.0195 -0.0039,0.0391 -0.0039,0.0547 0,0.0586 -0.01172,0.0977 -0.04297,0.125 -0.02734,0.0273 -0.07422,0.0391 -0.132812,0.0391 -0.05859,0 -0.101563,-0.0156 -0.125,-0.0469 -0.02734,-0.0312 -0.03906,-0.082 -0.03906,-0.15235 v -0.0898 l 0.03125,-0.64844 c 0,-0.0547 0.01563,-0.0976 0.04297,-0.12109 0.03125,-0.0274 0.07422,-0.043 0.136718,-0.043 h 1.339844 c 0.09375,0 0.160156,0.0195 0.207032,0.0547 0.04687,0.0351 0.07031,0.0859 0.07031,0.15234 0,0.0352 -0.0078,0.0703 -0.01953,0.10938 -0.01563,0.0391 -0.03906,0.0781 -0.06641,0.125 l -1.382812,2.00781 h 1.085938 l 0.02734,-0.54688 c 0,0 0,-0.004 0,-0.008 0.0078,-0.17969 0.06641,-0.26953 0.179688,-0.26953 0.05859,0 0.09766,0.0156 0.125,0.0469 0.02734,0.0312 0.03906,0.082 0.03906,0.15235 0,0 0,0.0117 0,0.0312 -0.0039,0.0195 -0.0039,0.0391 -0.0039,0.0547 l -0.03125,0.71093 c -0.0039,0.0586 -0.01563,0.10157 -0.04687,0.125 -0.02734,0.0234 -0.07031,0.0352 -0.132812,0.0352 h -1.472657 c -0.06641,0 -0.121093,-0.0195 -0.164062,-0.0586 -0.04297,-0.0391 -0.0625,-0.0899 -0.0625,-0.15235 0,-0.0391 0.01172,-0.0781 0.02734,-0.125 0.01953,-0.043 0.05078,-0.0976 0.08984,-0.15234 l 1.34375,-1.95313 z m 3.789062,0.82813 c 0.183594,0.0508 0.324219,0.14062 0.425781,0.27344 0.101563,0.13281 0.152344,0.29296 0.152344,0.48437 0,0.27344 -0.09766,0.49609 -0.292968,0.67188 -0.191407,0.17578 -0.445313,0.26171 -0.75,0.26171 -0.238282,0 -0.449219,-0.0469 -0.636719,-0.13671 -0.183594,-0.0937 -0.277344,-0.19141 -0.277344,-0.30079 0,-0.0469 0.01953,-0.0859 0.05078,-0.11718 0.03516,-0.0312 0.07422,-0.0469 0.125,-0.0469 0.02734,0 0.121094,0.0391 0.289063,0.1211 0.164062,0.0781 0.320312,0.11718 0.464843,0.11718 0.183594,0 0.335938,-0.0508 0.453126,-0.15625 0.117187,-0.10547 0.175781,-0.24609 0.175781,-0.41406 0,-0.14062 -0.04297,-0.25781 -0.121094,-0.35156 -0.08203,-0.0977 -0.191406,-0.16016 -0.332031,-0.1836 -0.04297,-0.008 -0.09766,-0.0156 -0.167969,-0.0195 -0.128906,-0.008 -0.195313,-0.0625 -0.195313,-0.16406 0,-0.0937 0.0625,-0.14844 0.191407,-0.16406 0.05078,-0.004 0.08984,-0.008 0.125,-0.0156 0.121093,-0.0195 0.21875,-0.0664 0.292969,-0.14843 0.07422,-0.082 0.113281,-0.17969 0.113281,-0.29688 0,-0.14844 -0.04687,-0.26953 -0.136719,-0.36328 -0.09375,-0.0937 -0.210938,-0.14063 -0.351562,-0.14063 -0.132813,0 -0.265626,0.043 -0.40625,0.1211 -0.136719,0.082 -0.222657,0.125 -0.257813,0.125 -0.04297,0 -0.08203,-0.0156 -0.109375,-0.043 -0.02734,-0.0273 -0.04297,-0.0625 -0.04297,-0.10547 0,-0.0977 0.08594,-0.19141 0.261719,-0.28516 0.175781,-0.0937 0.371094,-0.14062 0.582031,-0.14062 0.242188,0 0.445313,0.0703 0.609375,0.21875 0.160156,0.14844 0.242188,0.33203 0.242188,0.54687 0,0.16407 -0.03906,0.29688 -0.117188,0.40625 -0.07813,0.10547 -0.195312,0.1875 -0.359375,0.2461 z m 2.5,1.28125 h 0.08984 c 0.06641,0 0.113281,0.0156 0.144531,0.0391 0.02734,0.0273 0.04297,0.0664 0.04297,0.125 0,0.0547 -0.01563,0.0977 -0.04297,0.125 -0.02734,0.0273 -0.06641,0.043 -0.121094,0.043 h -1.15625 c -0.05078,0 -0.09375,-0.0156 -0.121093,-0.043 -0.02734,-0.0273 -0.04297,-0.0703 -0.04297,-0.125 0,-0.0586 0.01563,-0.10156 0.04687,-0.125 0.03125,-0.0234 0.08203,-0.0391 0.15625,-0.0391 h 0.222656 v -2.10938 H 75.9375 c -0.121094,0 -0.195312,-0.0117 -0.230469,-0.0351 -0.03516,-0.0274 -0.05078,-0.0703 -0.05078,-0.13282 0,-0.0547 0.01563,-0.0976 0.04297,-0.125 0.02734,-0.0312 0.07031,-0.0469 0.121093,-0.0469 h 2.074219 c 0.05469,0 0.09375,0.0156 0.121094,0.0508 0.02734,0.0312 0.04297,0.0781 0.04297,0.13672 v 0.60547 c 0,0.0547 -0.01563,0.0976 -0.04297,0.125 -0.02734,0.0273 -0.06641,0.0391 -0.121094,0.0391 -0.06641,0 -0.109375,-0.0156 -0.132812,-0.0508 -0.02344,-0.0352 -0.03516,-0.11328 -0.03516,-0.23047 v -0.33594 h -1.273437 v 0.78907 h 0.621094 v -0.0625 c 0,-0.11329 0.0078,-0.1875 0.03125,-0.22657 0.02344,-0.0391 0.0625,-0.0586 0.117187,-0.0586 0.05078,0 0.08594,0.0117 0.109375,0.043 0.02344,0.0312 0.03516,0.0781 0.03516,0.14453 v 0.59375 c 0,0.0781 -0.01172,0.13281 -0.03516,0.16016 -0.01953,0.0312 -0.05469,0.0469 -0.109375,0.0469 -0.05469,0 -0.09375,-0.0195 -0.117187,-0.0586 -0.02344,-0.0391 -0.03125,-0.11719 -0.03125,-0.23047 v -0.0664 h -0.621094 v 1.03516 z M 78.320312,276"
       id="path15562"
       inkscape:connector-curvature="0" />
  </g>
</svg>
