<?xml version="1.0" encoding="UTF-8" standalone="no"?>
<!-- Created with Inkscape (http://www.inkscape.org/) -->

<svg
   xmlns:osb="http://www.openswatchbook.org/uri/2009/osb"
   xmlns:dc="http://purl.org/dc/elements/1.1/"
   xmlns:cc="http://creativecommons.org/ns#"
   xmlns:rdf="http://www.w3.org/1999/02/22-rdf-syntax-ns#"
   xmlns:svg="http://www.w3.org/2000/svg"
   xmlns="http://www.w3.org/2000/svg"
   xmlns:sodipodi="http://sodipodi.sourceforge.net/DTD/sodipodi-0.dtd"
   xmlns:inkscape="http://www.inkscape.org/namespaces/inkscape"
   width="120"
   height="380"
   viewBox="0 0 31.749991 100.54167"
   version="1.1"
   id="svg8"
   inkscape:version="0.92.4 (5da689c313, 2019-01-14)"
   sodipodi:docname="rgb-v4.svg">
  <defs
     id="defs2">
    <linearGradient
       id="linearGradient2280"
       osb:paint="solid">
      <stop
         style="stop-color:#000000;stop-opacity:1;"
         offset="0"
         id="stop2278" />
    </linearGradient>
  </defs>
  <sodipodi:namedview
     id="base"
     pagecolor="#ffffff"
     bordercolor="#666666"
     borderopacity="1.0"
     inkscape:pageopacity="0.0"
     inkscape:pageshadow="2"
     inkscape:zoom="1.4"
     inkscape:cx="-98.571429"
     inkscape:cy="180.79143"
     inkscape:document-units="px"
     inkscape:current-layer="layer1"
     showgrid="false"
     units="px"
     inkscape:snap-bbox="true"
     inkscape:snap-page="true"
     inkscape:bbox-nodes="true"
     inkscape:snap-bbox-edge-midpoints="true"
     inkscape:window-width="1536"
     inkscape:window-height="760"
     inkscape:window-x="-8"
     inkscape:window-y="-8"
     inkscape:window-maximized="1"
     inkscape:snap-text-baseline="true"
     showguides="false" />
  <metadata
     id="metadata5">
    <rdf:RDF>
      <cc:Work
         rdf:about="">
        <dc:format>image/svg+xml</dc:format>
        <dc:type
           rdf:resource="http://purl.org/dc/dcmitype/StillImage" />
        <dc:title />
      </cc:Work>
    </rdf:RDF>
  </metadata>
  <g
     inkscape:label="Layer 1"
     inkscape:groupmode="layer"
     id="layer1"
     transform="translate(0,-196.45832)">
    <path
       style="opacity:1;vector-effect:none;fill:#f0f0f0;fill-opacity:1;fill-rule:evenodd;stroke:none;stroke-width:0.56126606;stroke-linecap:butt;stroke-linejoin:round;stroke-miterlimit:4;stroke-dasharray:none;stroke-dashoffset:0;stroke-opacity:1;paint-order:normal"
       d="M 0,196.45831 H 31.749996 V 296.99999 H 0 Z"
       id="rect817"
       inkscape:connector-curvature="0" />
    <path
       style="opacity:1;fill:#fffff0;fill-opacity:0;stroke:#3e3e3e;stroke-width:0.88053322;stroke-linejoin:miter;stroke-miterlimit:4;stroke-dasharray:none;stroke-opacity:1"
       d="m 9.4154868,280.72803 a 3.2639127,3.2639 0 0 1 -3.2639127,3.2639 3.2639127,3.2639 0 0 1 -3.2639126,-3.2639 3.2639127,3.2639 0 0 1 3.2639126,-3.2639 3.2639127,3.2639 0 0 1 3.2639127,3.2639 z"
       id="path818" />
    <path
       style="opacity:1;fill:#fffff0;fill-opacity:0;stroke:#3e3e3e;stroke-width:0.88053322;stroke-linejoin:miter;stroke-miterlimit:4;stroke-dasharray:none;stroke-opacity:1"
       d="m 19.138922,280.72803 a 3.2639127,3.2639 0 0 1 -3.263912,3.2639 3.2639127,3.2639 0 0 1 -3.263913,-3.2639 3.2639127,3.2639 0 0 1 3.263913,-3.2639 3.2639127,3.2639 0 0 1 3.263912,3.2639 z"
       id="ellipse3360" />
    <path
       style="opacity:1;fill:#fffff0;fill-opacity:0;stroke:#3e3e3e;stroke-width:0.88053322;stroke-linejoin:miter;stroke-miterlimit:4;stroke-dasharray:none;stroke-opacity:1"
       d="m 28.86236,280.72803 a 3.2639127,3.2639 0 0 1 -3.263912,3.2639 3.2639127,3.2639 0 0 1 -3.263913,-3.2639 3.2639127,3.2639 0 0 1 3.263913,-3.2639 3.2639127,3.2639 0 0 1 3.263912,3.2639 z"
       id="ellipse3362" />
    <g
       style="font-style:normal;font-variant:normal;font-weight:normal;font-stretch:normal;font-size:10.58333206px;line-height:125%;font-family:'BN Dragon';-inkscape-font-specification:'BN Dragon';letter-spacing:0px;word-spacing:0px;fill:#000000;fill-opacity:1;stroke:none;stroke-width:0.26458329px;stroke-linecap:butt;stroke-linejoin:miter;stroke-opacity:1"
       id="text820" />
    <g
       style="font-style:normal;font-variant:normal;font-weight:normal;font-stretch:normal;font-size:4.23333263px;line-height:125%;font-family:Litt;-inkscape-font-specification:Litt;letter-spacing:0px;word-spacing:0px;fill:#000000;fill-opacity:1;stroke:none;stroke-width:0.26458329px;stroke-linecap:butt;stroke-linejoin:miter;stroke-opacity:1"
       id="text822" />
    <g
       aria-label="R"
       style="font-style:normal;font-variant:normal;font-weight:normal;font-stretch:normal;font-size:4.23333263px;line-height:125%;font-family:Litt;-inkscape-font-specification:Litt;letter-spacing:0px;word-spacing:0px;fill:#3e3e3e;fill-opacity:1;stroke:none;stroke-width:0.26458329px;stroke-linecap:butt;stroke-linejoin:miter;stroke-opacity:1"
       id="text838">
      <path
         d="m 6.6299285,285.89489 0.5206999,0.5207 v 1.03717 q 0,0.004 -0.0254,0.0339 -0.0254,0.0254 -0.0635,0.0593 -0.033867,0.0339 -0.071967,0.072 -0.0381,0.0339 -0.0635,0.055 -0.021167,0.0212 -0.0762,0.0635 -0.0508,0.0423 -0.1100667,0.0889 -0.055033,0.0466 -0.1100666,0.0889 -0.0508,0.0423 -0.071967,0.055 0.5926666,0.66887 0.5926666,0.68157 0.00423,0.0127 0.00423,0.0212 0,0.008 -0.00423,0.0381 -0.00847,0.0127 -0.0381,0.0423 -0.0254,0.0254 -0.0381,0.0339 -0.00423,0 -0.016933,0 -0.0127,0.004 -0.021167,0.004 -0.00847,0 -0.033867,-0.004 L 6.1134619,287.96922 H 5.4064954 v 0.74083 q 0,0.008 -0.042333,0.0381 -0.042333,0.0296 -0.067733,0.0381 -0.00423,0 -0.016933,0 -0.0127,0.004 -0.021167,0.004 -0.00847,0 -0.033867,-0.004 -0.021167,-0.008 -0.0508,-0.0381 -0.0254,-0.0296 -0.0254,-0.0381 v -2.81516 z m -1.1853331,1.70603 q 1.0371665,0 1.0710331,-0.0254 0.0381,-0.0254 0.084667,-0.0593 0.046567,-0.0381 0.093133,-0.0762 0.0508,-0.0381 0.084667,-0.0635 0.016933,-0.0127 0.046567,-0.0381 0.029633,-0.0296 0.029633,-0.0339 v -0.81703 L 6.5579618,286.19122 H 5.4445954 Z"
         style="fill:#3e3e3e;fill-opacity:1;stroke-width:0.26458329px"
         id="path848" />
    </g>
    <g
       aria-label="G"
       style="font-style:normal;font-variant:normal;font-weight:normal;font-stretch:normal;font-size:4.23333263px;line-height:125%;font-family:Litt;-inkscape-font-specification:Litt;letter-spacing:0px;word-spacing:0px;fill:#3e3e3e;fill-opacity:1;stroke:none;stroke-width:0.26458329px;stroke-linecap:butt;stroke-linejoin:miter;stroke-opacity:1"
       id="text842">
      <path
         d="m 15.392409,285.97524 h 0.960967 l 0.5207,0.51647 q 0,0.004 0,0.0169 0.0042,0.0127 0.0042,0.0212 0,0.008 -0.0042,0.0212 0,0.0127 0,0.0169 -0.0085,0.0127 -0.0381,0.0423 -0.0254,0.0254 -0.0381,0.0296 -0.0042,0.004 -0.01693,0.008 -0.0127,0 -0.02117,0 -0.0085,0 -0.02117,0 -0.0127,-0.004 -0.0127,-0.008 l -0.4445,-0.3683 h -0.817033 l -0.296333,0.29634 v 1.62983 q 0,0.004 0.0254,0.0339 0.0254,0.0254 0.05927,0.0635 0.0381,0.0339 0.0762,0.072 0.0381,0.0339 0.0635,0.0508 0.02117,0.0169 0.0762,0.0466 0.05503,0.0296 0.07197,0.0296 0.0042,0 0.04233,0.004 0.04233,0 0.09313,0 0.05503,0 0.105833,0.004 0.05503,0 0.0889,0 0.03387,0 0.0889,0 0.05503,-0.004 0.105833,-0.004 0.05503,0 0.09313,0 0.04233,-0.004 0.04657,-0.004 0.0042,0 0.0254,-0.008 0.02117,-0.008 0.04233,-0.0212 0.0254,-0.0127 0.04657,-0.0254 0.0254,-0.0127 0.03387,-0.0212 0.0254,-0.0169 0.0635,-0.0508 0.0381,-0.0381 0.07197,-0.072 0.0381,-0.0381 0.0635,-0.0635 0.0254,-0.0296 0.0254,-0.0339 v -0.63077 h -0.740833 q -0.0085,0 -0.0381,-0.0423 -0.02963,-0.0423 -0.0381,-0.0677 0,-0.004 -0.0042,-0.0169 0,-0.0127 0,-0.0212 0,-0.008 0,-0.0212 0.0042,-0.0127 0.0042,-0.0169 0.0085,-0.0169 0.0381,-0.0423 0.02963,-0.0296 0.0381,-0.0296 h 1.037167 v 1.10913 q 0,0.008 -0.02963,0.0381 -0.02963,0.0254 -0.04657,0.0381 -0.02117,0.0169 -0.06773,0.0508 -0.04233,0.0339 -0.0889,0.0677 -0.04657,0.0339 -0.0889,0.0635 -0.0381,0.0296 -0.0508,0.0381 -0.0127,0.008 -0.0381,0.0212 -0.02117,0.0127 -0.04657,0.0254 -0.02117,0.0127 -0.04233,0.0212 -0.01693,0.008 -0.02117,0.008 h -0.960967 q -0.0042,0 -0.0254,-0.008 -0.01693,-0.008 -0.04233,-0.0212 -0.0254,-0.0127 -0.04657,-0.0254 -0.02117,-0.0127 -0.03387,-0.0212 -0.0127,-0.008 -0.05503,-0.0381 -0.0381,-0.0296 -0.08467,-0.0635 -0.04657,-0.0339 -0.09313,-0.0677 -0.04233,-0.0339 -0.0635,-0.0508 -0.02117,-0.0127 -0.0508,-0.0381 -0.0254,-0.0296 -0.0254,-0.0381 v -1.92616 z"
         style="fill:#3e3e3e;fill-opacity:1;stroke-width:0.26458329px"
         id="path851" />
    </g>
    <g
       aria-label="B"
       style="font-style:normal;font-variant:normal;font-weight:normal;font-stretch:normal;font-size:4.23333263px;line-height:125%;font-family:Litt;-inkscape-font-specification:Litt;letter-spacing:0px;word-spacing:0px;fill:#3e3e3e;fill-opacity:1;stroke:none;stroke-width:0.26458329px;stroke-linecap:butt;stroke-linejoin:miter;stroke-opacity:1"
       id="text846">
      <path
         d="m 24.584565,285.97524 h 1.481666 l 0.5207,0.51647 q 0.0042,0.004 0.0085,0.0339 0.0042,0.0296 0.0085,0.0677 0.0042,0.0339 0.0042,0.072 0.0042,0.0381 0.0042,0.0593 0,0.0254 -0.0042,0.072 0,0.0466 -0.0042,0.0931 -0.0042,0.0423 -0.0085,0.0804 -0.0042,0.0381 -0.0085,0.0423 -0.0085,0.0169 -0.0508,0.072 -0.04233,0.055 -0.09313,0.11854 -0.0508,0.0593 -0.09737,0.1143 -0.04657,0.0508 -0.05503,0.0635 -0.0042,0.004 -0.0085,0.0169 0,0.0127 0,0.0212 0,0.008 0,0.0254 0.0042,0.0127 0.0085,0.0127 0.0127,0.0212 0.05503,0.0635 0.04233,0.0423 0.0889,0.0889 0.04657,0.0466 0.0889,0.0889 0.04233,0.0423 0.0635,0.055 v 0.66463 q 0,0.008 -0.02963,0.0381 -0.02963,0.0254 -0.04657,0.0381 -0.02117,0.0169 -0.06773,0.0508 -0.04233,0.0339 -0.0889,0.0677 -0.04657,0.0339 -0.0889,0.0635 -0.0381,0.0296 -0.0508,0.0381 -0.0127,0.008 -0.0381,0.0212 -0.02117,0.0127 -0.04657,0.0254 -0.02117,0.0127 -0.04233,0.0212 -0.01693,0.008 -0.02117,0.008 h -1.481666 z m 0.296333,2.51883 h 1.037167 q 0.0127,0 0.06773,-0.0254 0.05927,-0.0296 0.08043,-0.0508 0.02117,-0.0169 0.05503,-0.0508 0.0381,-0.0339 0.07197,-0.0677 0.0381,-0.0339 0.0635,-0.0635 0.02963,-0.0296 0.03387,-0.0381 0,-0.004 0.0042,-0.055 0.0042,-0.0508 0.0042,-0.0804 0,-0.0339 -0.0042,-0.0931 -0.0042,-0.0593 -0.0042,-0.0677 l -0.0762,-0.0762 q -0.03387,-0.0254 -0.08467,-0.0593 -0.04657,-0.0381 -0.09313,-0.072 -0.04657,-0.0381 -0.118533,-0.0889 h -1.037167 z m 0,-1.26153 h 1.113367 q 0.01693,0 0.05927,-0.0339 0.04233,-0.0339 0.0889,-0.0804 0.0508,-0.0466 0.0889,-0.0974 0.04233,-0.0508 0.05927,-0.0847 0,-0.004 0.0042,-0.0254 0.0042,-0.0212 0.0042,-0.0508 0.0042,-0.0296 0.0042,-0.0593 0.0042,-0.0296 0.0042,-0.0466 0,-0.0169 -0.0042,-0.0466 0,-0.0296 -0.0042,-0.0593 0,-0.0296 -0.0042,-0.0508 -0.0042,-0.0254 -0.0042,-0.0296 -0.01693,-0.0339 -0.05927,-0.0847 -0.0381,-0.0508 -0.0889,-0.0974 -0.04657,-0.0466 -0.0889,-0.0804 -0.04233,-0.0339 -0.05927,-0.0339 h -1.113367 z"
         style="fill:#3e3e3e;fill-opacity:1;stroke-width:0.26458329px"
         id="path854" />
    </g>
  </g>
</svg>
