<?xml version="1.0" encoding="UTF-8" standalone="no"?>
<!-- Created with Inkscape (http://www.inkscape.org/) -->

<svg
   xmlns:osb="http://www.openswatchbook.org/uri/2009/osb"
   xmlns:dc="http://purl.org/dc/elements/1.1/"
   xmlns:cc="http://creativecommons.org/ns#"
   xmlns:rdf="http://www.w3.org/1999/02/22-rdf-syntax-ns#"
   xmlns:svg="http://www.w3.org/2000/svg"
   xmlns="http://www.w3.org/2000/svg"
   xmlns:sodipodi="http://sodipodi.sourceforge.net/DTD/sodipodi-0.dtd"
   xmlns:inkscape="http://www.inkscape.org/namespaces/inkscape"
   width="120"
   height="380"
   viewBox="0 0 31.749991 100.54167"
   version="1.1"
   id="svg8"
   inkscape:version="0.92.4 (5da689c313, 2019-01-14)"
   sodipodi:docname="rgb-v4.svg">
  <defs
     id="defs2">
    <linearGradient
       id="linearGradient2280"
       osb:paint="solid">
      <stop
         style="stop-color:#000000;stop-opacity:1;"
         offset="0"
         id="stop2278" />
    </linearGradient>
  </defs>
  <sodipodi:namedview
     id="base"
     pagecolor="#ffffff"
     bordercolor="#666666"
     borderopacity="1.0"
     inkscape:pageopacity="0.0"
     inkscape:pageshadow="2"
     inkscape:zoom="3.959798"
     inkscape:cx="34.043105"
     inkscape:cy="75.662493"
     inkscape:document-units="px"
     inkscape:current-layer="layer1"
     showgrid="true"
     units="px"
     inkscape:snap-bbox="true"
     inkscape:snap-page="false"
     inkscape:bbox-nodes="true"
     inkscape:snap-bbox-edge-midpoints="true"
     inkscape:window-width="1536"
     inkscape:window-height="760"
     inkscape:window-x="-8"
     inkscape:window-y="-8"
     inkscape:window-maximized="1"
     inkscape:snap-text-baseline="true"
     showguides="true"
     inkscape:snap-others="true"
     inkscape:snap-nodes="true"
     inkscape:snap-global="false"
     inkscape:snap-grids="true"
     inkscape:snap-bbox-midpoints="true"
     inkscape:bbox-paths="true"
     inkscape:object-nodes="false">
    <inkscape:grid
       type="xygrid"
       id="grid898" />
  </sodipodi:namedview>
  <metadata
     id="metadata5">
    <rdf:RDF>
      <cc:Work
         rdf:about="">
        <dc:format>image/svg+xml</dc:format>
        <dc:type
           rdf:resource="http://purl.org/dc/dcmitype/StillImage" />
        <dc:title />
      </cc:Work>
    </rdf:RDF>
  </metadata>
  <g
     inkscape:label="Layer 1"
     inkscape:groupmode="layer"
     id="layer1"
     transform="translate(0,-196.45832)">
    <path
       style="opacity:1;vector-effect:none;fill:#f0f0f0;fill-opacity:1;fill-rule:evenodd;stroke:none;stroke-width:0.56126606;stroke-linecap:butt;stroke-linejoin:round;stroke-miterlimit:4;stroke-dasharray:none;stroke-dashoffset:0;stroke-opacity:1;paint-order:normal"
       d="M 0,196.45831 H 31.749996 V 296.99999 H 0 Z"
       id="rect817"
       inkscape:connector-curvature="0" />
    <path
       style="opacity:1;fill:#fffff0;fill-opacity:0;stroke:#3e3e3e;stroke-width:0.88053322;stroke-linejoin:miter;stroke-miterlimit:4;stroke-dasharray:none;stroke-opacity:1"
       d="m 9.4154868,282.8447 a 3.2639127,3.2639 0 0 1 -3.2639127,3.2639 3.2639127,3.2639 0 0 1 -3.2639126,-3.2639 3.2639127,3.2639 0 0 1 3.2639126,-3.2639 3.2639127,3.2639 0 0 1 3.2639127,3.2639 z"
       id="path818" />
    <path
       style="opacity:1;fill:#fffff0;fill-opacity:0;stroke:#3e3e3e;stroke-width:0.88053322;stroke-linejoin:miter;stroke-miterlimit:4;stroke-dasharray:none;stroke-opacity:1"
       d="m 19.138922,282.8447 a 3.2639127,3.2639 0 0 1 -3.263912,3.2639 3.2639127,3.2639 0 0 1 -3.263913,-3.2639 3.2639127,3.2639 0 0 1 3.263913,-3.2639 3.2639127,3.2639 0 0 1 3.263912,3.2639 z"
       id="ellipse3360" />
    <path
       style="opacity:1;fill:#fffff0;fill-opacity:0;stroke:#3e3e3e;stroke-width:0.88053322;stroke-linejoin:miter;stroke-miterlimit:4;stroke-dasharray:none;stroke-opacity:1"
       d="m 28.86236,282.8447 a 3.2639127,3.2639 0 0 1 -3.263912,3.2639 3.2639127,3.2639 0 0 1 -3.263913,-3.2639 3.2639127,3.2639 0 0 1 3.263913,-3.2639 3.2639127,3.2639 0 0 1 3.263912,3.2639 z"
       id="ellipse3362" />
    <g
       style="font-style:normal;font-variant:normal;font-weight:normal;font-stretch:normal;font-size:10.58333206px;line-height:125%;font-family:'BN Dragon';-inkscape-font-specification:'BN Dragon';letter-spacing:0px;word-spacing:0px;fill:#000000;fill-opacity:1;stroke:none;stroke-width:0.26458329px;stroke-linecap:butt;stroke-linejoin:miter;stroke-opacity:1"
       id="text820" />
    <g
       style="font-style:normal;font-variant:normal;font-weight:normal;font-stretch:normal;font-size:4.23333263px;line-height:125%;font-family:Litt;-inkscape-font-specification:Litt;letter-spacing:0px;word-spacing:0px;fill:#000000;fill-opacity:1;stroke:none;stroke-width:0.26458329px;stroke-linecap:butt;stroke-linejoin:miter;stroke-opacity:1"
       id="text822" />
    <g
       aria-label="R"
       style="font-style:normal;font-variant:normal;font-weight:normal;font-stretch:normal;font-size:4.23333263px;line-height:125%;font-family:Litt;-inkscape-font-specification:Litt;letter-spacing:0px;word-spacing:0px;fill:#3e3e3e;fill-opacity:1;stroke:none;stroke-width:0.26458329px;stroke-linecap:butt;stroke-linejoin:miter;stroke-opacity:1"
       id="text838">
      <path
         d="m 6.6299285,288.01156 0.5206999,0.5207 v 1.03716 q 0,0.004 -0.0254,0.0339 -0.0254,0.0254 -0.0635,0.0593 -0.033867,0.0339 -0.071967,0.072 -0.0381,0.0339 -0.0635,0.055 -0.021167,0.0212 -0.0762,0.0635 -0.0508,0.0423 -0.1100667,0.0889 -0.055033,0.0466 -0.1100666,0.0889 -0.0508,0.0423 -0.071967,0.055 0.5926666,0.66887 0.5926666,0.68157 0.00423,0.0127 0.00423,0.0212 0,0.008 -0.00423,0.0381 -0.00847,0.0127 -0.0381,0.0423 -0.0254,0.0254 -0.0381,0.0339 -0.00423,0 -0.016933,0 -0.0127,0.004 -0.021167,0.004 -0.00847,0 -0.033867,-0.004 L 6.1134619,290.08589 H 5.4064954 v 0.74083 q 0,0.008 -0.042333,0.0381 -0.042333,0.0296 -0.067733,0.0381 -0.00423,0 -0.016933,0 -0.0127,0.004 -0.021167,0.004 -0.00847,0 -0.033867,-0.004 -0.021167,-0.008 -0.0508,-0.0381 -0.0254,-0.0296 -0.0254,-0.0381 v -2.81516 z m -1.1853331,1.70603 q 1.0371665,0 1.0710331,-0.0254 0.0381,-0.0254 0.084667,-0.0593 0.046567,-0.0381 0.093133,-0.0762 0.0508,-0.0381 0.084667,-0.0635 0.016933,-0.0127 0.046567,-0.0381 0.029633,-0.0296 0.029633,-0.0339 v -0.81704 L 6.5579618,288.30789 H 5.4445954 Z"
         style="fill:#3e3e3e;fill-opacity:1;stroke-width:0.26458329px"
         id="path867" />
    </g>
    <g
       aria-label="G"
       style="font-style:normal;font-variant:normal;font-weight:normal;font-stretch:normal;font-size:4.23333263px;line-height:125%;font-family:Litt;-inkscape-font-specification:Litt;letter-spacing:0px;word-spacing:0px;fill:#3e3e3e;fill-opacity:1;stroke:none;stroke-width:0.26458329px;stroke-linecap:butt;stroke-linejoin:miter;stroke-opacity:1"
       id="text842">
      <path
         d="m 15.392409,288.09191 h 0.960967 l 0.5207,0.51646 q 0,0.004 0,0.0169 0.0042,0.0127 0.0042,0.0212 0,0.008 -0.0042,0.0212 0,0.0127 0,0.0169 -0.0085,0.0127 -0.0381,0.0423 -0.0254,0.0254 -0.0381,0.0296 -0.0042,0.004 -0.01693,0.008 -0.0127,0 -0.02117,0 -0.0085,0 -0.02117,0 -0.0127,-0.004 -0.0127,-0.008 l -0.4445,-0.3683 h -0.817033 l -0.296333,0.29633 v 1.62984 q 0,0.004 0.0254,0.0339 0.0254,0.0254 0.05927,0.0635 0.0381,0.0339 0.0762,0.072 0.0381,0.0339 0.0635,0.0508 0.02117,0.0169 0.0762,0.0466 0.05503,0.0296 0.07197,0.0296 0.0042,0 0.04233,0.004 0.04233,0 0.09313,0 0.05503,0 0.105833,0.004 0.05503,0 0.0889,0 0.03387,0 0.0889,0 0.05503,-0.004 0.105833,-0.004 0.05503,0 0.09313,0 0.04233,-0.004 0.04657,-0.004 0.0042,0 0.0254,-0.008 0.02117,-0.008 0.04233,-0.0212 0.0254,-0.0127 0.04657,-0.0254 0.0254,-0.0127 0.03387,-0.0212 0.0254,-0.0169 0.0635,-0.0508 0.0381,-0.0381 0.07197,-0.072 0.0381,-0.0381 0.0635,-0.0635 0.0254,-0.0296 0.0254,-0.0339 v -0.63077 h -0.740833 q -0.0085,0 -0.0381,-0.0423 -0.02963,-0.0423 -0.0381,-0.0677 0,-0.004 -0.0042,-0.0169 0,-0.0127 0,-0.0212 0,-0.008 0,-0.0212 0.0042,-0.0127 0.0042,-0.0169 0.0085,-0.0169 0.0381,-0.0423 0.02963,-0.0296 0.0381,-0.0296 h 1.037167 v 1.10913 q 0,0.008 -0.02963,0.0381 -0.02963,0.0254 -0.04657,0.0381 -0.02117,0.0169 -0.06773,0.0508 -0.04233,0.0339 -0.0889,0.0677 -0.04657,0.0339 -0.0889,0.0635 -0.0381,0.0296 -0.0508,0.0381 -0.0127,0.008 -0.0381,0.0212 -0.02117,0.0127 -0.04657,0.0254 -0.02117,0.0127 -0.04233,0.0212 -0.01693,0.008 -0.02117,0.008 h -0.960967 q -0.0042,0 -0.0254,-0.008 -0.01693,-0.008 -0.04233,-0.0212 -0.0254,-0.0127 -0.04657,-0.0254 -0.02117,-0.0127 -0.03387,-0.0212 -0.0127,-0.008 -0.05503,-0.0381 -0.0381,-0.0296 -0.08467,-0.0635 -0.04657,-0.0339 -0.09313,-0.0677 -0.04233,-0.0339 -0.0635,-0.0508 -0.02117,-0.0127 -0.0508,-0.0381 -0.0254,-0.0296 -0.0254,-0.0381 v -1.92617 z"
         style="fill:#3e3e3e;fill-opacity:1;stroke-width:0.26458329px"
         id="path870" />
    </g>
    <g
       aria-label="B"
       style="font-style:normal;font-variant:normal;font-weight:normal;font-stretch:normal;font-size:4.23333263px;line-height:125%;font-family:Litt;-inkscape-font-specification:Litt;letter-spacing:0px;word-spacing:0px;fill:#3e3e3e;fill-opacity:1;stroke:none;stroke-width:0.26458329px;stroke-linecap:butt;stroke-linejoin:miter;stroke-opacity:1"
       id="text846">
      <path
         d="m 24.584565,288.09191 h 1.481666 l 0.5207,0.51646 q 0.0042,0.004 0.0085,0.0339 0.0042,0.0296 0.0085,0.0677 0.0042,0.0339 0.0042,0.072 0.0042,0.0381 0.0042,0.0593 0,0.0254 -0.0042,0.072 0,0.0466 -0.0042,0.0931 -0.0042,0.0423 -0.0085,0.0804 -0.0042,0.0381 -0.0085,0.0423 -0.0085,0.0169 -0.0508,0.072 -0.04233,0.055 -0.09313,0.11853 -0.0508,0.0593 -0.09737,0.1143 -0.04657,0.0508 -0.05503,0.0635 -0.0042,0.004 -0.0085,0.0169 0,0.0127 0,0.0212 0,0.008 0,0.0254 0.0042,0.0127 0.0085,0.0127 0.0127,0.0212 0.05503,0.0635 0.04233,0.0423 0.0889,0.0889 0.04657,0.0466 0.0889,0.0889 0.04233,0.0423 0.0635,0.055 v 0.66463 q 0,0.008 -0.02963,0.0381 -0.02963,0.0254 -0.04657,0.0381 -0.02117,0.0169 -0.06773,0.0508 -0.04233,0.0339 -0.0889,0.0677 -0.04657,0.0339 -0.0889,0.0635 -0.0381,0.0296 -0.0508,0.0381 -0.0127,0.008 -0.0381,0.0212 -0.02117,0.0127 -0.04657,0.0254 -0.02117,0.0127 -0.04233,0.0212 -0.01693,0.008 -0.02117,0.008 h -1.481666 z m 0.296333,2.51883 h 1.037167 q 0.0127,0 0.06773,-0.0254 0.05927,-0.0296 0.08043,-0.0508 0.02117,-0.0169 0.05503,-0.0508 0.0381,-0.0339 0.07197,-0.0677 0.0381,-0.0339 0.0635,-0.0635 0.02963,-0.0296 0.03387,-0.0381 0,-0.004 0.0042,-0.055 0.0042,-0.0508 0.0042,-0.0804 0,-0.0339 -0.0042,-0.0931 -0.0042,-0.0593 -0.0042,-0.0677 l -0.0762,-0.0762 q -0.03387,-0.0254 -0.08467,-0.0593 -0.04657,-0.0381 -0.09313,-0.072 -0.04657,-0.0381 -0.118533,-0.0889 h -1.037167 z m 0,-1.26153 h 1.113367 q 0.01693,0 0.05927,-0.0339 0.04233,-0.0339 0.0889,-0.0804 0.0508,-0.0466 0.0889,-0.0974 0.04233,-0.0508 0.05927,-0.0847 0,-0.004 0.0042,-0.0254 0.0042,-0.0212 0.0042,-0.0508 0.0042,-0.0296 0.0042,-0.0593 0.0042,-0.0296 0.0042,-0.0466 0,-0.0169 -0.0042,-0.0466 0,-0.0296 -0.0042,-0.0593 0,-0.0296 -0.0042,-0.0508 -0.0042,-0.0254 -0.0042,-0.0296 -0.01693,-0.0339 -0.05927,-0.0847 -0.0381,-0.0508 -0.0889,-0.0974 -0.04657,-0.0466 -0.0889,-0.0804 -0.04233,-0.0339 -0.05927,-0.0339 h -1.113367 z"
         style="fill:#3e3e3e;fill-opacity:1;stroke-width:0.26458329px"
         id="path873" />
    </g>
    <path
       style="fill:none;fill-rule:evenodd;stroke:#000000;stroke-width:0.26458329px;stroke-linecap:butt;stroke-linejoin:miter;stroke-opacity:1"
       d="m 9.4154867,282.8447 v 0 0 0"
       id="path900"
       inkscape:connector-curvature="0" />
    <path
       style="fill:none;fill-rule:evenodd;stroke:#000000;stroke-width:0.26458329px;stroke-linecap:butt;stroke-linejoin:miter;stroke-opacity:1"
       d="m 9.4154867,282.8447 v 0"
       id="path904"
       inkscape:connector-curvature="0" />
    <path
       style="fill:none;fill-rule:evenodd;stroke:#3e3e3e;stroke-width:0.18520831;stroke-linecap:butt;stroke-linejoin:miter;stroke-opacity:1;stroke-miterlimit:4;stroke-dasharray:none"
       d="m 9.3544323,283.10194 h 3.3408687 v 0 0"
       id="path912"
       inkscape:connector-curvature="0" />
    <path
       style="fill:none;fill-rule:evenodd;stroke:#3e3e3e;stroke-width:0.18520831;stroke-linecap:butt;stroke-linejoin:miter;stroke-opacity:1;stroke-miterlimit:4;stroke-dasharray:none"
       d="m 19.243403,283.10196 h 3.207235"
       id="path914"
       inkscape:connector-curvature="0" />
    <path
       style="fill:none;fill-rule:evenodd;stroke:#3e3e3e;stroke-width:0.18520831;stroke-linecap:butt;stroke-linejoin:miter;stroke-opacity:1;stroke-miterlimit:4;stroke-dasharray:none"
       d="m 5.291666,273.18748 h 14.552082 l 3.968749,-3.96875 h 6.614583 v 0"
       id="path948"
       inkscape:connector-curvature="0" />
    <path
       inkscape:connector-curvature="0"
       id="path950"
       d="m 5.291666,274.24582 h 14.552082 l 3.968749,-3.96875 h 6.614583 v 0"
       style="fill:none;fill-rule:evenodd;stroke:#3e3e3e;stroke-width:0.18520831;stroke-linecap:butt;stroke-linejoin:miter;stroke-opacity:1;stroke-miterlimit:4;stroke-dasharray:none" />
    <path
       style="fill:none;fill-rule:evenodd;stroke:#3e3e3e;stroke-width:0.18520831;stroke-linecap:butt;stroke-linejoin:miter;stroke-opacity:1;stroke-miterlimit:4;stroke-dasharray:none"
       d="m 19.857853,279.84774 -0.0141,-4.54358 3.968749,-3.96875 h 6.614583 v 0"
       id="path952"
       inkscape:connector-curvature="0"
       sodipodi:nodetypes="ccccc" />
    <path
       inkscape:connector-curvature="0"
       id="path954"
       d="m 15.715176,267.98646 4.128572,4.14268 3.968749,-3.96875 h 6.614583 v 0"
       style="fill:none;fill-rule:evenodd;stroke:#3e3e3e;stroke-width:0.18520831;stroke-linecap:butt;stroke-linejoin:miter;stroke-opacity:1;stroke-miterlimit:4;stroke-dasharray:none"
       sodipodi:nodetypes="ccccc" />
    <path
       inkscape:connector-curvature="0"
       id="path960"
       d="M 14.552082,270.80622 H 5.291666 l -3.9687495,-5.29167 v 0 0"
       style="fill:none;fill-rule:evenodd;stroke:#3e3e3e;stroke-width:0.18520831;stroke-linecap:butt;stroke-linejoin:miter;stroke-opacity:1;stroke-miterlimit:4;stroke-dasharray:none" />
    <path
       style="fill:none;fill-rule:evenodd;stroke:#3e3e3e;stroke-width:0.18520831;stroke-linecap:butt;stroke-linejoin:miter;stroke-opacity:1;stroke-miterlimit:4;stroke-dasharray:none"
       d="m 10.716967,283.04959 -0.133635,9.98163 H 3.9687495 v 0"
       id="path964"
       inkscape:connector-curvature="0"
       sodipodi:nodetypes="cccc" />
    <path
       style="fill:none;fill-rule:evenodd;stroke:#3e3e3e;stroke-width:0.18520831;stroke-linecap:butt;stroke-linejoin:miter;stroke-opacity:1;stroke-miterlimit:4;stroke-dasharray:none"
       d="M 3.9687495,294.35414 H 31.749996"
       id="path966"
       inkscape:connector-curvature="0" />
    <path
       style="fill:none;fill-rule:evenodd;stroke:#3e3e3e;stroke-width:0.18520831;stroke-linecap:butt;stroke-linejoin:miter;stroke-miterlimit:4;stroke-dasharray:none;stroke-opacity:1"
       d="m 21.247925,283.10196 v 9.88897 h 10.557146"
       id="path968"
       inkscape:connector-curvature="0"
       sodipodi:nodetypes="ccc" />
    <path
       style="fill:none;fill-rule:evenodd;stroke:#3e3e3e;stroke-width:0.18520831;stroke-linecap:butt;stroke-linejoin:miter;stroke-opacity:1;stroke-miterlimit:4;stroke-dasharray:none"
       d="M 14.552082,271.86456 H 4.4898575 l -3.166941,-4.02214"
       id="path993"
       inkscape:connector-curvature="0"
       sodipodi:nodetypes="ccc" />
    <path
       id="path1005"
       d="m 31.027367,268.12595 a 0.33491257,0.33491594 0 0 1 -0.334913,0.33492 0.33491257,0.33491594 0 0 1 -0.334912,-0.33492 0.33491257,0.33491594 0 0 1 0.334912,-0.33491 0.33491257,0.33491594 0 0 1 0.334913,0.33491 z"
       style="opacity:1;fill:#fffff0;fill-opacity:0;stroke:#3e3e3e;stroke-width:0.12392474;stroke-linejoin:miter;stroke-miterlimit:4;stroke-dasharray:none;stroke-opacity:1"
       inkscape:connector-curvature="0" />
    <path
       inkscape:connector-curvature="0"
       style="opacity:1;fill:#fffff0;fill-opacity:0;stroke:#3e3e3e;stroke-width:0.12392474;stroke-linejoin:miter;stroke-miterlimit:4;stroke-dasharray:none;stroke-opacity:1"
       d="m 31.027367,269.18429 a 0.33491257,0.33491594 0 0 1 -0.334913,0.33492 0.33491257,0.33491594 0 0 1 -0.334912,-0.33492 0.33491257,0.33491594 0 0 1 0.334912,-0.33491 0.33491257,0.33491594 0 0 1 0.334913,0.33491 z"
       id="path1007" />
    <path
       id="path1009"
       d="m 31.027367,270.24263 a 0.33491257,0.33491594 0 0 1 -0.334913,0.33492 0.33491257,0.33491594 0 0 1 -0.334912,-0.33492 0.33491257,0.33491594 0 0 1 0.334912,-0.33491 0.33491257,0.33491594 0 0 1 0.334913,0.33491 z"
       style="opacity:1;fill:#fffff0;fill-opacity:0;stroke:#3e3e3e;stroke-width:0.12392474;stroke-linejoin:miter;stroke-miterlimit:4;stroke-dasharray:none;stroke-opacity:1"
       inkscape:connector-curvature="0" />
    <path
       inkscape:connector-curvature="0"
       style="opacity:1;fill:#fffff0;fill-opacity:0;stroke:#3e3e3e;stroke-width:0.12392474;stroke-linejoin:miter;stroke-miterlimit:4;stroke-dasharray:none;stroke-opacity:1"
       d="m 31.027367,271.30097 a 0.33491257,0.33491594 0 0 1 -0.334913,0.33492 0.33491257,0.33491594 0 0 1 -0.334912,-0.33492 0.33491257,0.33491594 0 0 1 0.334912,-0.33491 0.33491257,0.33491594 0 0 1 0.334913,0.33491 z"
       id="path1011" />
    <path
       inkscape:connector-curvature="0"
       style="opacity:1;fill:#fffff0;fill-opacity:0;stroke:#3e3e3e;stroke-width:0.12392474;stroke-linejoin:miter;stroke-miterlimit:4;stroke-dasharray:none;stroke-opacity:1"
       d="m 15.780492,267.75028 a 0.33491257,0.33491594 0 0 1 -0.334913,0.33492 0.33491257,0.33491594 0 0 1 -0.334912,-0.33492 0.33491257,0.33491594 0 0 1 0.334912,-0.33491 0.33491257,0.33491594 0 0 1 0.334913,0.33491 z"
       id="path1013" />
    <path
       id="path1015"
       d="m 1.3604529,265.31962 a 0.33491257,0.33491594 0 0 1 -0.334913,0.33492 0.33491257,0.33491594 0 0 1 -0.33491196,-0.33492 0.33491257,0.33491594 0 0 1 0.33491196,-0.33491 0.33491257,0.33491594 0 0 1 0.334913,0.33491 z"
       style="opacity:1;fill:#fffff0;fill-opacity:0;stroke:#3e3e3e;stroke-width:0.12392474;stroke-linejoin:miter;stroke-miterlimit:4;stroke-dasharray:none;stroke-opacity:1"
       inkscape:connector-curvature="0" />
    <path
       inkscape:connector-curvature="0"
       style="opacity:1;fill:#fffff0;fill-opacity:0;stroke:#3e3e3e;stroke-width:0.12392474;stroke-linejoin:miter;stroke-miterlimit:4;stroke-dasharray:none;stroke-opacity:1"
       d="m 1.4272702,267.65823 a 0.33491257,0.33491594 0 0 1 -0.334913,0.33492 0.33491257,0.33491594 0 0 1 -0.33491185,-0.33492 0.33491257,0.33491594 0 0 1 0.33491185,-0.33491 0.33491257,0.33491594 0 0 1 0.334913,0.33491 z"
       id="path1017" />
    <path
       id="path1019"
       d="m 5.3569817,273.16249 a 0.33491257,0.33491594 0 0 1 -0.334913,0.33492 0.33491257,0.33491594 0 0 1 -0.334912,-0.33492 0.33491257,0.33491594 0 0 1 0.334912,-0.33491 0.33491257,0.33491594 0 0 1 0.334913,0.33491 z"
       style="opacity:1;fill:#fffff0;fill-opacity:0;stroke:#3e3e3e;stroke-width:0.12392474;stroke-linejoin:miter;stroke-miterlimit:4;stroke-dasharray:none;stroke-opacity:1"
       inkscape:connector-curvature="0" />
    <path
       inkscape:connector-curvature="0"
       style="opacity:1;fill:#fffff0;fill-opacity:0;stroke:#3e3e3e;stroke-width:0.12392474;stroke-linejoin:miter;stroke-miterlimit:4;stroke-dasharray:none;stroke-opacity:1"
       d="m 5.3569817,274.21776 a 0.33491257,0.33491594 0 0 1 -0.334913,0.33492 0.33491257,0.33491594 0 0 1 -0.334912,-0.33492 0.33491257,0.33491594 0 0 1 0.334912,-0.33491 0.33491257,0.33491594 0 0 1 0.334913,0.33491 z"
       id="path1021" />
    <path
       id="path1023"
       d="m 20.190439,280.17831 a 0.33491257,0.33491594 0 0 1 -0.334913,0.33492 0.33491257,0.33491594 0 0 1 -0.334912,-0.33492 0.33491257,0.33491594 0 0 1 0.334912,-0.33491 0.33491257,0.33491594 0 0 1 0.334913,0.33491 z"
       style="opacity:1;fill:#fffff0;fill-opacity:0;stroke:#3e3e3e;stroke-width:0.12392474;stroke-linejoin:miter;stroke-miterlimit:4;stroke-dasharray:none;stroke-opacity:1"
       inkscape:connector-curvature="0" />
    <path
       inkscape:connector-curvature="0"
       style="opacity:1;fill:#fffff0;fill-opacity:0;stroke:#3e3e3e;stroke-width:0.12392474;stroke-linejoin:miter;stroke-miterlimit:4;stroke-dasharray:none;stroke-opacity:1"
       d="m 3.9538173,293.00725 a 0.33491257,0.33491594 0 0 1 -0.334913,0.33492 0.33491257,0.33491594 0 0 1 -0.334912,-0.33492 0.33491257,0.33491594 0 0 1 0.334912,-0.33491 0.33491257,0.33491594 0 0 1 0.334913,0.33491 z"
       id="path1025" />
    <path
       id="path1027"
       d="m 4.0206346,294.3436 a 0.33491257,0.33491594 0 0 1 -0.334913,0.33492 0.33491257,0.33491594 0 0 1 -0.334912,-0.33492 0.33491257,0.33491594 0 0 1 0.334912,-0.33491 0.33491257,0.33491594 0 0 1 0.334913,0.33491 z"
       style="opacity:1;fill:#fffff0;fill-opacity:0;stroke:#3e3e3e;stroke-width:0.12392474;stroke-linejoin:miter;stroke-miterlimit:4;stroke-dasharray:none;stroke-opacity:1"
       inkscape:connector-curvature="0" />
    <path
       id="path1029"
       d="m 15.193117,270.75706 a 0.33491257,0.33491594 0 0 1 -0.334913,0.33492 0.33491257,0.33491594 0 0 1 -0.334912,-0.33492 0.33491257,0.33491594 0 0 1 0.334912,-0.33491 0.33491257,0.33491594 0 0 1 0.334913,0.33491 z"
       style="opacity:1;fill:#fffff0;fill-opacity:0;stroke:#3e3e3e;stroke-width:0.12392474;stroke-linejoin:miter;stroke-miterlimit:4;stroke-dasharray:none;stroke-opacity:1"
       inkscape:connector-curvature="0" />
    <path
       inkscape:connector-curvature="0"
       style="opacity:1;fill:#fffff0;fill-opacity:0;stroke:#3e3e3e;stroke-width:0.12392474;stroke-linejoin:miter;stroke-miterlimit:4;stroke-dasharray:none;stroke-opacity:1"
       d="m 15.193117,271.86826 a 0.33491257,0.33491594 0 0 1 -0.334913,0.33492 0.33491257,0.33491594 0 0 1 -0.334912,-0.33492 0.33491257,0.33491594 0 0 1 0.334912,-0.33491 0.33491257,0.33491594 0 0 1 0.334913,0.33491 z"
       id="path1031" />
  </g>
</svg>
